<?xml version="1.0" encoding="UTF-8" standalone="no"?>
<svg
   xmlns:dc="http://purl.org/dc/elements/1.1/"
   xmlns:cc="http://creativecommons.org/ns#"
   xmlns:rdf="http://www.w3.org/1999/02/22-rdf-syntax-ns#"
   xmlns:svg="http://www.w3.org/2000/svg"
   xmlns="http://www.w3.org/2000/svg"
   xmlns:xlink="http://www.w3.org/1999/xlink"
   id="svg23"
   xml:space="preserve"
   viewBox="0 0 1024 768"
   y="0px"
   x="0px"
   version="1.1"><metadata
     id="metadata27"><rdf:RDF><cc:Work
         rdf:about=""><dc:format>image/svg+xml</dc:format><dc:type
           rdf:resource="http://purl.org/dc/dcmitype/StillImage" /></cc:Work></rdf:RDF></metadata><style
     id="style2">
#logo-hover{
transform: matrix(1,0,0,1,0,0);
animation: shift 4s ease-in-out;
animation-fill-mode:forwards;
}

@keyframes shift {
	0% { transform: matrix(1,0,0,1,0,0); }
	50% { transform: matrix(1,0,0,1,0,-20); }
	100% { transform: matrix(1,0,0,1,0,0); }
}


</style><defs
     id="defs6"><filter
       height="200%"
       width="200%"
       y="-50%"
       x="-50%"
       id="f1"><feGaussianBlur
         stdDeviation="5"
         in="SourceGraphic"
         id="blur1" /></filter></defs><path
     opacity="0.6"
     filter="url(#f1)"
     stroke-width="2"
     stroke="#000000"
     fill="#000000"
     transform="translate(3 5)"
     d="m497.16 123.94c-0.4 0.01-1.01 0.08-1.37 0.17s-0.98 0.32-1.38 0.52c-0.43 0.2-1.07 0.69-1.53 1.14-0.54 0.54-0.92 1.07-1.22 1.71-0.26 0.55-0.49 1.27-0.56 1.8-0.08 0.57-0.08 1.19 0 1.76 0.08 0.59 0.28 1.22 0.62 1.91 0.37 0.75 0.7 1.2 1.23 1.69 0.41 0.38 1.02 0.83 1.37 1.02 0.34 0.19 0.96 0.43 1.37 0.54 0.41 0.1 1.11 0.19 1.57 0.19 0.45 0 1.15-0.09 1.55-0.19 0.39-0.1 0.99-0.33 1.33-0.5s0.96-0.63 1.39-1.02c0.57-0.53 0.89-0.97 1.26-1.73 0.36-0.72 0.54-1.29 0.62-1.91 0.05-0.48 0.05-1.27 0-1.75-0.07-0.57-0.27-1.21-0.55-1.81-0.31-0.64-0.68-1.17-1.23-1.71-0.51-0.51-1.07-0.93-1.6-1.17-0.45-0.22-1.12-0.45-1.49-0.53-0.37-0.07-0.99-0.13-1.38-0.13zm-0.03 20.77c-0.17 0.01-0.62 0.06-1 0.13-0.37 0.06-1.1 0.31-1.61 0.56-0.61 0.29-1.18 0.69-1.67 1.18-0.48 0.49-0.89 1.05-1.18 1.67-0.27 0.56-0.49 1.26-0.57 1.8-0.08 0.55-0.08 1.18-0.01 1.69 0.07 0.45 0.2 1.06 0.31 1.35 0.1 0.3 0.33 0.78 0.5 1.07s0.54 0.78 0.82 1.07c0.29 0.29 0.82 0.73 1.18 0.98 0.36 0.24 1.01 0.55 1.45 0.69 0.54 0.17 1.16 0.25 1.9 0.25 0.63 0 1.38-0.09 1.78-0.2 0.37-0.11 0.96-0.36 1.31-0.56s0.87-0.59 1.16-0.87c0.3-0.29 0.74-0.81 0.98-1.17 0.25-0.37 0.56-1.03 0.71-1.48 0.17-0.56 0.25-1.15 0.25-1.89 0-0.73-0.08-1.33-0.26-1.9-0.14-0.46-0.5-1.19-0.78-1.62-0.29-0.42-0.81-1.01-1.17-1.29-0.35-0.28-0.98-0.67-1.39-0.86-0.42-0.2-1.13-0.41-1.58-0.48-0.45-0.08-0.96-0.13-1.13-0.12zm20.83 4.15c-0.14 0.01-0.54 0.06-0.89 0.12-0.34 0.06-0.88 0.19-1.19 0.3-0.3 0.11-0.82 0.37-1.15 0.58-0.32 0.21-0.87 0.68-1.21 1.04-0.35 0.37-0.78 0.95-0.95 1.29s-0.4 0.93-0.52 1.3c-0.11 0.38-0.2 1.12-0.2 1.65s0.09 1.27 0.2 1.64c0.11 0.38 0.38 1.01 0.58 1.4 0.21 0.4 0.71 1.03 1.1 1.4 0.39 0.38 1.06 0.86 1.47 1.07s0.99 0.44 1.29 0.52c0.29 0.08 1 0.14 1.56 0.14 0.69 0 1.32-0.08 1.87-0.26 0.46-0.14 1.19-0.48 1.61-0.76 0.42-0.29 0.97-0.75 1.21-1.04 0.25-0.29 0.63-0.85 0.83-1.25s0.45-1.11 0.56-1.57c0.14-0.59 0.18-1.14 0.13-1.75-0.04-0.5-0.19-1.23-0.34-1.64-0.15-0.4-0.47-1.03-0.71-1.4-0.24-0.36-0.7-0.89-1.02-1.18-0.32-0.28-0.98-0.7-1.47-0.93-0.48-0.23-1.25-0.48-1.69-0.55-0.45-0.07-0.94-0.13-1.07-0.12zm-41.02 0.08c-0.42-0.04-1.1-0.02-1.51 0.04-0.41 0.07-1.15 0.3-1.63 0.54-0.49 0.23-1.15 0.66-1.48 0.94-0.32 0.29-0.78 0.82-1.02 1.18-0.23 0.37-0.55 0.99-0.7 1.39s-0.3 1.11-0.34 1.58c-0.05 0.46-0.02 1.18 0.06 1.6 0.08 0.41 0.33 1.15 0.56 1.63 0.24 0.49 0.64 1.13 0.91 1.44 0.26 0.3 0.81 0.76 1.22 1.03 0.4 0.26 1.1 0.6 1.55 0.75 0.6 0.19 1.13 0.27 1.92 0.27 0.78-0.01 1.33-0.09 1.9-0.28 0.43-0.14 1.08-0.45 1.44-0.68 0.35-0.23 0.91-0.71 1.25-1.09 0.33-0.37 0.74-0.94 0.91-1.27 0.17-0.34 0.39-0.93 0.49-1.32 0.11-0.4 0.19-1.13 0.19-1.62s-0.09-1.2-0.2-1.58c-0.11-0.37-0.34-0.96-0.52-1.3-0.17-0.34-0.59-0.92-0.94-1.29-0.35-0.36-0.9-0.83-1.22-1.03-0.32-0.21-0.92-0.49-1.33-0.62-0.42-0.14-1.1-0.28-1.51-0.31zm20.25 16.65c-0.55 0-1.26 0.08-1.57 0.16-0.31 0.09-0.84 0.3-1.18 0.46s-0.94 0.6-1.34 0.97-0.9 0.94-1.11 1.27-0.48 0.85-0.58 1.16c-0.11 0.3-0.25 0.92-0.32 1.38-0.07 0.51-0.07 1.14 0.01 1.69 0.08 0.54 0.3 1.24 0.58 1.82 0.3 0.63 0.7 1.2 1.18 1.68 0.47 0.47 1.04 0.88 1.62 1.15 0.5 0.24 1.31 0.5 1.81 0.59 0.69 0.11 1.13 0.12 1.85 0.01 0.58-0.09 1.28-0.31 1.82-0.58 0.49-0.23 1.12-0.63 1.41-0.88s0.75-0.79 1.02-1.2c0.28-0.42 0.63-1.13 0.78-1.59 0.21-0.61 0.28-1.13 0.28-1.92-0.01-0.72-0.09-1.35-0.26-1.87-0.13-0.43-0.43-1.07-0.65-1.41-0.22-0.35-0.73-0.94-1.14-1.31-0.4-0.38-1.04-0.83-1.42-1.01-0.37-0.18-0.92-0.38-1.23-0.45-0.3-0.07-1-0.12-1.55-0.12h-0.01zm20.77 4.15c-0.62 0-1.29 0.09-1.73 0.23-0.39 0.13-0.98 0.39-1.31 0.58-0.32 0.19-0.81 0.55-1.09 0.8s-0.73 0.8-1 1.21c-0.26 0.41-0.6 1.14-0.75 1.61-0.21 0.69-0.25 1.09-0.2 2.02 0.04 0.72 0.16 1.42 0.32 1.87 0.14 0.39 0.44 0.98 0.67 1.31 0.22 0.33 0.67 0.85 0.98 1.15 0.32 0.3 0.95 0.74 1.42 0.97 0.47 0.24 1.24 0.49 1.75 0.57 0.52 0.09 1.22 0.12 1.64 0.07 0.41-0.04 1.06-0.19 1.45-0.33 0.4-0.13 0.99-0.41 1.31-0.62 0.33-0.21 0.85-0.65 1.15-0.98 0.3-0.32 0.68-0.8 0.83-1.05 0.16-0.25 0.4-0.79 0.54-1.19 0.14-0.41 0.28-1.14 0.32-1.62 0.05-0.6 0.01-1.16-0.13-1.75-0.11-0.48-0.39-1.21-0.61-1.63-0.22-0.43-0.72-1.08-1.1-1.47-0.38-0.38-0.98-0.84-1.33-1.03s-0.97-0.43-1.38-0.54c-0.4-0.1-1.19-0.19-1.75-0.18zm-41.52 0c-0.56 0-1.32 0.09-1.69 0.19-0.38 0.1-1 0.36-1.39 0.58-0.38 0.22-0.99 0.7-1.35 1.07-0.38 0.39-0.85 1.05-1.12 1.6-0.3 0.62-0.51 1.25-0.6 1.89-0.1 0.72-0.1 1.18 0.02 1.85 0.08 0.5 0.32 1.26 0.53 1.7 0.21 0.43 0.66 1.1 1.01 1.47 0.34 0.38 0.9 0.86 1.23 1.08 0.33 0.21 0.93 0.5 1.32 0.63 0.4 0.14 1.05 0.29 1.45 0.33 0.42 0.05 1.13 0.02 1.64-0.07 0.52-0.08 1.28-0.33 1.77-0.58 0.5-0.25 1.16-0.72 1.55-1.11 0.37-0.38 0.86-1.03 1.09-1.46s0.49-1.07 0.59-1.42c0.09-0.36 0.17-1.05 0.17-1.53 0-0.49-0.08-1.22-0.19-1.63s-0.35-1.03-0.53-1.38c-0.19-0.35-0.69-0.98-1.1-1.41-0.42-0.42-1.05-0.91-1.39-1.09-0.34-0.17-0.93-0.4-1.31-0.52-0.4-0.11-1.11-0.19-1.7-0.19zm20.48 16.61l0.03 0.01c-1.46 0.01-3.24 0.06-3.97 0.12s-2.06 0.19-2.96 0.31c-0.9 0.11-2.4 0.34-3.33 0.51-0.94 0.17-2.58 0.53-3.65 0.8s-2.69 0.73-3.59 1.02c-0.9 0.28-2.51 0.86-3.58 1.28s-3.17 1.38-4.66 2.13c-1.49 0.74-3.54 1.88-4.56 2.52-1.03 0.64-2.6 1.7-3.51 2.36s-2.37 1.79-3.24 2.51c-0.87 0.73-2.58 2.31-3.79 3.53-1.21 1.21-2.75 2.85-3.41 3.65-0.66 0.79-1.68 2.1-2.27 2.89-0.6 0.8-1.5 2.1-2.02 2.9-0.52 0.79-1.28 2.04-1.7 2.77-0.41 0.72-1.13 2.07-1.6 3-0.46 0.92-1.2 2.55-1.65 3.63-0.45 1.07-1.09 2.79-1.43 3.81-0.35 1.02-0.85 2.73-1.13 3.79-0.27 1.07-0.64 2.67-0.82 3.57-0.17 0.9-0.42 2.49-0.56 3.54-0.14 1.04-0.32 2.94-0.4 4.21-0.09 1.33-0.12 3.37-0.07 4.78 0.04 1.35 0.16 3.33 0.27 4.4s0.34 2.76 0.51 3.77c0.17 1 0.56 2.87 0.88 4.15s0.85 3.15 1.18 4.15 0.87 2.5 1.2 3.33c0.33 0.84 0.9 2.16 1.28 2.95 0.37 0.79 0.65 1.47 0.61 1.5-0.03 0.03-1.01 0.19-2.17 0.34-1.16 0.16-3.13 0.46-4.37 0.68-1.25 0.21-3.4 0.64-4.79 0.95-1.38 0.31-3.57 0.85-4.87 1.2-1.3 0.34-3.37 0.94-4.59 1.33-1.22 0.38-3.02 0.98-3.99 1.33s-2.56 0.95-3.53 1.33-2.55 1.03-3.52 1.45c-0.97 0.41-3.07 1.38-4.66 2.16-1.59 0.77-3.78 1.9-4.86 2.5-1.08 0.59-2.69 1.52-3.58 2.05-0.9 0.54-2.4 1.47-3.36 2.08-0.95 0.61-2.59 1.72-3.65 2.46-1.05 0.74-2.68 1.92-3.61 2.63-0.94 0.72-2.44 1.9-3.34 2.63-0.9 0.74-2.56 2.17-3.71 3.19-1.14 1.01-3.26 3.03-4.72 4.49-1.45 1.45-3.41 3.52-4.36 4.59s-2.32 2.69-3.06 3.59-2.07 2.6-2.95 3.77c-0.89 1.18-2.37 3.27-3.31 4.66-0.93 1.38-2.38 3.65-3.2 5.03-0.83 1.38-2 3.44-2.61 4.57-0.6 1.12-1.57 3.02-2.14 4.21s-1.5 3.24-2.06 4.56c-0.56 1.31-1.28 3.09-1.6 3.96-0.33 0.86-0.96 2.65-1.4 3.96-0.45 1.32-1.03 3.16-1.3 4.09-0.26 0.94-0.66 2.35-0.87 3.15-0.21 0.79-0.61 2.47-0.88 3.71-0.28 1.25-0.7 3.43-0.95 4.84-0.24 1.42-0.56 3.54-0.71 4.72-0.15 1.17-0.36 3.23-0.47 4.59l-0.21 2.46h-8.56c-6.32 0-8.9-0.05-9.87-0.17-0.73-0.09-1.81-0.25-2.39-0.35-0.59-0.1-1.53-0.29-2.09-0.43-0.56-0.13-1.58-0.42-2.27-0.63-0.68-0.21-1.89-0.64-2.69-0.96-0.79-0.32-1.94-0.83-2.55-1.13s-1.73-0.92-2.5-1.38c-0.76-0.45-2.05-1.32-2.86-1.93-0.8-0.61-2.03-1.62-2.73-2.24-0.69-0.61-1.76-1.68-2.37-2.37-0.62-0.68-1.6-1.88-2.18-2.66s-1.42-2.02-1.88-2.77c-0.45-0.74-1.07-1.84-1.37-2.44-0.31-0.61-0.76-1.6-1.01-2.21-0.26-0.61-0.68-1.73-0.93-2.49-0.26-0.76-0.64-2.12-0.86-3.02-0.21-0.9-0.48-2.26-0.59-3.02-0.12-0.76-0.25-2.2-0.29-3.21-0.05-1-0.05-2.59 0-3.52 0.05-0.98 0.22-2.37 0.41-3.3 0.18-0.89 0.52-2.22 0.77-2.96 0.25-0.75 0.81-2.09 1.25-2.99 0.43-0.9 1.13-2.14 1.54-2.77 0.41-0.62 1.09-1.55 1.51-2.07s1.35-1.51 2.06-2.21c0.72-0.69 1.65-1.52 2.06-1.84 0.42-0.31 1.25-0.89 1.85-1.29 0.61-0.39 1.79-1.05 2.64-1.46s2.16-0.94 2.91-1.19 2.02-0.59 2.83-0.76c0.81-0.16 2.21-0.37 3.11-0.44 0.91-0.09 2.13-0.11 2.77-0.06 0.62 0.04 1.53 0.16 2.01 0.26s1.25 0.3 1.7 0.45c0.45 0.14 1.33 0.52 1.95 0.83s1.5 0.82 1.95 1.14 1.27 1.04 1.83 1.59c0.56 0.56 1.32 1.46 1.69 2.01 0.36 0.55 0.91 1.51 1.21 2.15 0.3 0.63 0.69 1.69 0.87 2.36 0.18 0.66 0.36 1.78 0.41 2.47 0.06 0.7 0.06 1.83 0.01 2.5s-0.24 1.78-0.41 2.46c-0.17 0.67-0.57 1.76-0.88 2.42-0.31 0.65-0.86 1.62-1.23 2.16-0.37 0.53-1.07 1.37-1.55 1.86-0.49 0.5-1.27 1.19-1.74 1.54-0.47 0.36-1.35 0.9-1.95 1.21-0.61 0.31-1.55 0.72-2.09 0.9-0.55 0.18-1.39 0.41-1.89 0.5-0.49 0.1-1.48 0.21-2.21 0.25-0.73 0.05-1.6 0.15-1.94 0.22-0.35 0.08-0.86 0.24-1.14 0.37-0.28 0.12-0.67 0.34-0.88 0.48s-0.68 0.55-1.05 0.91c-0.42 0.42-0.83 1-1.1 1.56-0.25 0.53-0.49 1.27-0.57 1.82-0.11 0.72-0.11 1.15 0.01 1.84 0.08 0.5 0.34 1.29 0.56 1.76 0.23 0.47 0.65 1.12 0.94 1.44 0.28 0.33 0.81 0.79 1.18 1.02 0.36 0.24 0.99 0.56 1.4 0.71s1.17 0.31 1.7 0.35c0.52 0.04 1.69 0.01 2.59-0.07s2.34-0.29 3.21-0.47c0.86-0.17 2.25-0.54 3.08-0.82 0.83-0.27 2.3-0.89 3.27-1.36s2.36-1.26 3.09-1.74c0.72-0.48 1.86-1.34 2.53-1.9 0.66-0.55 1.68-1.51 2.25-2.12 0.57-0.6 1.46-1.67 1.97-2.36 0.52-0.69 1.26-1.79 1.64-2.43 0.38-0.65 0.95-1.72 1.26-2.39s0.81-1.95 1.11-2.85 0.69-2.35 0.87-3.22c0.17-0.86 0.37-2.4 0.45-3.42 0.1-1.35 0.1-2.37 0-3.71-0.08-1.02-0.28-2.56-0.45-3.43-0.18-0.87-0.57-2.31-0.87-3.21s-0.8-2.19-1.11-2.85c-0.31-0.67-0.89-1.76-1.28-2.42-0.39-0.67-1.14-1.79-1.67-2.5-0.54-0.71-1.65-1.97-2.49-2.8-0.83-0.84-1.96-1.87-2.52-2.29-0.55-0.42-1.46-1.06-2.01-1.42-0.58-0.36-1.83-1.05-2.8-1.52-0.96-0.48-2.44-1.09-3.27-1.36-0.83-0.28-2.23-0.65-3.1-0.83-0.88-0.18-2.48-0.39-3.55-0.47-1.5-0.12-2.45-0.12-4.13 0-1.2 0.08-2.88 0.26-3.75 0.4-0.86 0.14-2.43 0.48-3.49 0.76-1.05 0.27-2.61 0.75-3.46 1.07s-2.45 1.03-3.56 1.57c-1.1 0.55-2.59 1.36-3.3 1.81s-1.93 1.3-2.71 1.88c-0.77 0.59-1.98 1.58-2.67 2.21s-1.78 1.72-2.43 2.43c-0.64 0.71-1.64 1.92-2.22 2.68-0.57 0.76-1.39 1.93-1.81 2.6s-1.05 1.75-1.39 2.39c-0.35 0.64-0.89 1.76-1.2 2.47-0.32 0.71-0.8 1.96-1.08 2.77s-0.68 2.09-0.88 2.85-0.51 2.21-0.68 3.21-0.37 2.76-0.45 3.9c-0.08 1.17-0.11 2.85-0.07 3.84 0.05 0.97 0.14 2.35 0.21 3.08 0.06 0.73 0.26 2.18 0.44 3.23 0.17 1.06 0.51 2.71 0.74 3.67 0.24 0.97 0.64 2.4 0.89 3.18 0.25 0.79 0.75 2.14 1.09 3.01 0.35 0.86 1.02 2.36 1.49 3.33s1.25 2.42 1.73 3.22c0.48 0.81 1.27 2.05 1.76 2.77s1.5 2.07 2.25 3.01c0.74 0.93 2.29 2.63 3.43 3.78 1.15 1.15 2.85 2.69 3.78 3.44 0.94 0.74 2.29 1.75 3.01 2.24s1.96 1.28 2.77 1.76c0.8 0.48 2.25 1.26 3.22 1.74 0.97 0.47 2.47 1.14 3.33 1.48 0.87 0.35 2.23 0.84 3.02 1.09 0.8 0.26 2.21 0.66 3.14 0.9 0.93 0.23 2.54 0.56 3.58 0.74 1.05 0.17 2.44 0.38 3.1 0.45 0.73 0.09 4.75 0.17 10.39 0.2l9.19 0.07 0.15 2.15c0.09 1.19 0.3 3.32 0.47 4.74s0.48 3.63 0.69 4.91 0.56 3.15 0.76 4.15c0.21 1 0.66 2.96 0.99 4.35 0.34 1.38 0.96 3.65 1.37 5.03 0.42 1.38 1.05 3.36 1.41 4.4s0.96 2.68 1.33 3.65c0.38 0.97 1.12 2.78 1.65 4.02s1.68 3.7 2.56 5.47 2.14 4.16 2.8 5.31c0.66 1.16 1.64 2.8 2.17 3.65 0.53 0.86 1.59 2.48 2.36 3.62 0.76 1.13 2.13 3.05 3.04 4.27 0.92 1.22 2.27 2.96 3.01 3.86 0.74 0.89 2.16 2.54 3.15 3.64 0.99 1.11 3.1 3.29 4.68 4.86 1.58 1.56 3.64 3.5 4.57 4.32 0.94 0.82 2.72 2.31 3.96 3.3s2.98 2.33 3.87 2.97l1.61 1.16v13.61c0 8.65 0.05 14.08 0.13 14.91 0.07 0.72 0.25 1.84 0.39 2.5 0.14 0.65 0.43 1.73 0.64 2.39 0.21 0.65 0.67 1.82 1.03 2.58s0.9 1.78 1.2 2.26c0.3 0.49 0.86 1.3 1.25 1.82s1.17 1.43 1.75 2.04l1.05 1.1-0.29 0.06c-0.16 0.04-2.13 0.24-4.38 0.45-2.25 0.22-6.16 0.62-8.69 0.9-2.52 0.27-5.78 0.64-7.23 0.81s-4.23 0.51-6.16 0.75c-1.94 0.25-5 0.64-6.8 0.89-1.8 0.24-5.03 0.69-7.17 1-2.15 0.32-4.98 0.74-6.3 0.94s-2.63 0.45-2.91 0.55-0.75 0.31-1.05 0.46c-0.31 0.15-0.88 0.6-1.29 0.99s-0.88 0.94-1.05 1.22c-0.16 0.28-0.41 0.84-0.55 1.24-0.13 0.4-0.28 1.07-0.32 1.5-0.05 0.49-0.01 1.1 0.11 1.67 0.11 0.5 0.35 1.23 0.55 1.63 0.19 0.4 0.61 1 0.92 1.35s0.87 0.82 1.23 1.06c0.37 0.24 0.99 0.54 1.38 0.67 0.39 0.14 1.08 0.28 1.53 0.32 0.62 0.05 1.64-0.06 4.1-0.44 1.8-0.28 4.86-0.74 6.79-1.01 1.94-0.28 4.8-0.68 6.36-0.88 1.56-0.21 4.39-0.58 6.29-0.82s5.44-0.67 7.86-0.95c2.43-0.28 5.99-0.67 7.93-0.88 1.94-0.2 5.28-0.54 7.42-0.75 2.15-0.21 5.83-0.55 8.18-0.76 2.36-0.2 6.12-0.52 8.37-0.69 2.25-0.18 4.82-0.37 5.72-0.44s3.34-0.24 5.41-0.38c2.08-0.14 4.71-0.31 5.85-0.38 1.15-0.07 3.07-0.18 4.28-0.25s3.28-0.18 4.59-0.25c1.32-0.07 3.58-0.18 5.04-0.25 1.45-0.07 4.68-0.22 7.17-0.32s6.28-0.24 8.43-0.31c2.14-0.07 6.08-0.19 8.74-0.26 2.67-0.07 9.52-0.18 15.23-0.26 5.71-0.07 14.26-0.1 19-0.06s11.45 0.14 14.91 0.2c3.46 0.07 8.24 0.18 10.63 0.25s6.58 0.21 9.31 0.32c2.73 0.1 6.81 0.27 9.06 0.37 2.25 0.11 5.67 0.28 7.61 0.38 1.94 0.11 5.79 0.33 8.56 0.51 2.76 0.17 7.01 0.45 9.43 0.63 2.42 0.17 6.47 0.48 9 0.69 2.52 0.2 6.18 0.51 8.12 0.69 1.93 0.17 5.5 0.51 7.92 0.75 2.42 0.25 6.47 0.67 9 0.95 2.52 0.28 6.46 0.73 8.74 1.01 2.28 0.27 6.27 0.78 8.86 1.13 2.59 0.34 6.61 0.91 8.93 1.25 2.33 0.34 5.28 0.78 6.57 0.97l2.35 0.34 0.91-0.15c0.51-0.09 1.29-0.34 1.75-0.55 0.54-0.26 1.11-0.68 1.62-1.19 0.54-0.54 0.92-1.07 1.22-1.71 0.26-0.55 0.5-1.3 0.58-1.86 0.13-0.8 0.12-1.11-0.05-1.95-0.11-0.54-0.36-1.3-0.54-1.67-0.18-0.38-0.67-1.05-1.09-1.49-0.53-0.57-1.01-0.94-1.65-1.25-0.49-0.24-1.32-0.52-1.84-0.62s-3.27-0.52-6.1-0.94c-2.84-0.41-7.06-1.01-9.38-1.32-2.31-0.32-6.53-0.86-9.37-1.2s-6.97-0.82-9.18-1.07c-2.22-0.24-5.7-0.61-7.74-0.82s-6.18-0.6-9.19-0.88c-3.01-0.27-6.26-0.55-7.23-0.63-0.97-0.07-1.95-0.16-2.18-0.2l-0.42-0.07 1.11-1.16c0.61-0.63 1.44-1.55 1.83-2.05 0.39-0.49 1.08-1.45 1.52-2.14 0.45-0.68 1.1-1.81 1.45-2.5 0.34-0.69 0.76-1.6 0.94-2.01 0.17-0.42 0.49-1.3 0.7-1.95 0.22-0.66 0.51-1.74 0.65-2.39 0.15-0.66 0.35-1.85 0.45-2.64 0.14-1.12 0.18-3.36 0.18-10.15v-8.71l1.16-0.66c0.64-0.37 1.96-1.14 2.93-1.73 0.96-0.59 2.83-1.79 4.15-2.67 1.31-0.88 3.21-2.21 4.21-2.95 1.01-0.75 2.53-1.93 3.4-2.63 0.86-0.69 2.22-1.82 3.02-2.51 0.8-0.68 2.47-2.2 3.73-3.37 1.26-1.18 3.25-3.17 4.42-4.43 1.18-1.25 2.73-2.96 3.44-3.8 0.72-0.83 1.77-2.07 2.33-2.76 0.55-0.69 1.71-2.18 2.56-3.32 0.85-1.13 2.34-3.25 3.32-4.71 0.98-1.47 2.24-3.43 2.8-4.36 0.56-0.94 1.44-2.47 1.97-3.41 0.52-0.94 1.53-2.86 2.23-4.26s1.64-3.38 2.09-4.39c0.45-1.02 1.25-2.92 1.76-4.24 0.52-1.31 0.99-2.51 1.05-2.65l0.11-0.27 4.7-0.07c3.88-0.05 4.99-0.11 6.36-0.32 0.91-0.14 2.34-0.43 3.18-0.65 0.83-0.21 2.15-0.61 2.93-0.9 0.78-0.28 2.03-0.81 2.79-1.18 0.77-0.37 2-1.04 2.74-1.49 0.75-0.45 1.89-1.22 2.53-1.7 0.64-0.49 1.64-1.32 2.23-1.86s1.52-1.47 2.06-2.05c0.54-0.59 1.3-1.5 1.7-2.02 0.39-0.52 1.01-1.37 1.36-1.9 0.36-0.54 0.96-1.54 1.34-2.23 0.38-0.7 0.95-1.86 1.26-2.59 0.32-0.72 0.77-1.9 1-2.61 0.24-0.72 0.58-1.98 0.77-2.81 0.18-0.83 0.43-2.16 0.55-2.96 0.18-1.29 0.2-3.34 0.2-19.75v-18.31l-0.22-0.88c-0.12-0.48-0.37-1.27-0.55-1.75s-0.66-1.36-1.07-1.97c-0.4-0.6-1.15-1.48-1.66-1.96-0.51-0.47-1.24-1.05-1.63-1.28-0.38-0.23-1.14-0.61-1.68-0.84s-1.42-0.51-1.96-0.62c-0.84-0.17-2.75-0.2-14.94-0.2h-13.97l-0.12-0.28c-0.07-0.16-0.49-1.25-0.95-2.42-0.46-1.18-1.29-3.19-1.85-4.47-0.57-1.28-1.66-3.57-2.43-5.09-0.77-1.53-1.95-3.73-2.62-4.89-0.67-1.17-1.65-2.81-2.18-3.65-0.52-0.84-1.6-2.49-2.4-3.67s-1.93-2.79-2.52-3.59c-0.59-0.79-1.82-2.38-2.74-3.52-0.91-1.14-2.19-2.68-2.84-3.41-0.65-0.74-1.56-1.76-2.03-2.28-0.46-0.52-0.85-0.98-0.85-1.02s0.42-0.69 0.93-1.43c0.51-0.75 1.33-2.05 1.83-2.9s1.3-2.35 1.76-3.33c0.47-0.99 1.15-2.53 1.5-3.43s0.84-2.32 1.09-3.15c0.26-0.83 0.62-2.19 0.82-3.02s0.45-2.05 0.57-2.7c0.11-0.66 0.3-1.82 0.41-2.58 0.18-1.23 0.2-4.04 0.24-24.84l0.04-23.45-0.2-0.7c-0.11-0.39-0.37-1.03-0.58-1.43-0.21-0.39-0.71-1.03-1.12-1.42-0.46-0.44-1.09-0.87-1.71-1.16l-0.98-0.47-1.28-0.05-1.28-0.04-1.62 0.47c-0.88 0.25-3.14 0.97-5.01 1.6-1.87 0.62-4.73 1.6-6.35 2.19-1.63 0.59-4.72 1.77-6.86 2.62-2.15 0.86-5.09 2.07-6.53 2.71-1.45 0.63-3.94 1.77-5.53 2.52-1.6 0.76-4.15 2.03-5.66 2.84-1.52 0.8-3.65 1.97-4.73 2.59-1.08 0.63-2.92 1.75-4.1 2.49-1.17 0.75-2.97 1.96-4 2.69-1.02 0.74-2.4 1.76-3.06 2.29-0.66 0.52-1.77 1.45-2.48 2.06-0.7 0.61-2.03 1.87-2.94 2.79-0.92 0.93-2.04 2.13-2.5 2.69-0.46 0.55-1.22 1.54-1.69 2.2s-1.16 1.73-1.54 2.39c-0.37 0.66-0.91 1.7-1.19 2.33-0.28 0.62-0.57 1.34-0.66 1.6l-0.15 0.47h-2.33c-1.82 0-2.32-0.03-2.27-0.15 0.04-0.09 0.43-1.01 0.88-2.05s1.11-2.73 1.47-3.77 0.87-2.68 1.14-3.64c0.28-0.96 0.69-2.72 0.94-3.9 0.24-1.18 0.54-3.03 0.68-4.1s0.31-3.03 0.4-4.34c0.08-1.41 0.11-3.32 0.06-4.66-0.05-1.24-0.17-3.08-0.27-4.09-0.1-1-0.3-2.56-0.44-3.46s-0.43-2.4-0.64-3.33c-0.21-0.94-0.57-2.38-0.8-3.21-0.24-0.83-0.69-2.27-1-3.2-0.32-0.93-0.84-2.31-1.16-3.08-0.31-0.77-0.95-2.19-1.41-3.15-0.47-0.97-1.24-2.45-1.71-3.28s-1.24-2.12-1.71-2.86c-0.48-0.74-1.37-2.04-1.99-2.89s-1.73-2.28-2.48-3.18-2.3-2.57-3.44-3.72c-1.15-1.14-2.79-2.67-3.66-3.39-0.86-0.72-2.19-1.77-2.95-2.34-0.77-0.56-2.04-1.45-2.83-1.96-0.8-0.52-2.04-1.29-2.77-1.7-0.73-0.42-2.07-1.14-2.99-1.59-0.91-0.46-2.47-1.19-3.46-1.61s-2.87-1.12-4.18-1.56c-1.32-0.43-3.22-0.99-4.22-1.24s-2.59-0.59-3.52-0.76c-0.94-0.17-2.41-0.39-3.27-0.5-0.87-0.11-2.34-0.25-3.27-0.32s-2.88-0.13-4.34-0.12zm1.15 12.52c1.53 0.02 3.48 0.13 4.35 0.23 0.86 0.11 2.22 0.31 3.02 0.45 0.79 0.15 2.12 0.44 2.95 0.65s2.2 0.6 3.05 0.88c0.85 0.27 2.23 0.78 3.07 1.13 0.84 0.34 2.3 1.01 3.24 1.48s2.25 1.18 2.89 1.58c0.65 0.39 1.62 1 2.14 1.36 0.53 0.35 1.41 0.98 1.97 1.4 0.55 0.41 1.34 1.04 1.76 1.39 0.41 0.35 1.34 1.16 2.05 1.81 0.71 0.66 1.86 1.84 2.57 2.63 0.7 0.79 1.73 2.01 2.28 2.71 0.55 0.71 1.38 1.86 1.84 2.55s1.17 1.81 1.57 2.49 1.14 2.09 1.64 3.14c0.51 1.06 1.13 2.45 1.39 3.11s0.69 1.87 0.95 2.7c0.27 0.82 0.66 2.19 0.87 3.04 0.21 0.84 0.52 2.35 0.69 3.34 0.16 0.99 0.37 2.48 0.45 3.31 0.09 0.83 0.16 2.84 0.15 4.47 0 1.87-0.08 3.6-0.21 4.72-0.11 0.97-0.32 2.41-0.46 3.21-0.15 0.79-0.46 2.23-0.7 3.2-0.25 0.96-0.73 2.57-1.08 3.58-0.34 1.01-0.97 2.6-1.37 3.53-0.41 0.94-1.15 2.44-1.64 3.34s-1.42 2.44-2.07 3.42-1.75 2.51-2.46 3.4c-0.71 0.88-2.08 2.42-3.06 3.42-0.97 0.99-2.49 2.41-3.38 3.14-0.88 0.74-2.24 1.78-3.02 2.33-0.77 0.54-2.11 1.41-2.98 1.93-0.86 0.51-2.31 1.29-3.21 1.73s-2.42 1.11-3.39 1.49c-0.97 0.39-2.53 0.93-3.47 1.21-0.93 0.28-2.45 0.68-3.39 0.88-0.93 0.21-2.29 0.46-3.02 0.57-0.73 0.1-1.94 0.25-2.7 0.32-0.77 0.07-2.61 0.13-4.09 0.13-1.49 0-3.33-0.06-4.09-0.13s-1.98-0.22-2.71-0.32c-0.72-0.11-2.08-0.36-3.02-0.57-0.93-0.2-2.46-0.6-3.4-0.88-0.93-0.28-2.49-0.82-3.45-1.2-0.97-0.39-2.6-1.11-3.62-1.62s-2.52-1.33-3.33-1.82c-0.82-0.49-2.06-1.31-2.75-1.8-0.7-0.5-1.83-1.36-2.52-1.9-0.69-0.55-2.24-2-3.46-3.21-1.21-1.22-2.7-2.84-3.31-3.6s-1.69-2.26-2.41-3.34c-0.71-1.07-1.67-2.62-2.12-3.45-0.46-0.83-1.2-2.35-1.65-3.38-0.46-1.02-1.1-2.66-1.43-3.65-0.34-0.98-0.82-2.58-1.07-3.57-0.25-0.98-0.6-2.59-0.76-3.58-0.17-0.99-0.37-2.45-0.44-3.25s-0.16-2.18-0.21-3.08c-0.04-0.9-0.01-2.61 0.06-3.8 0.08-1.18 0.22-2.79 0.33-3.58s0.34-2.17 0.52-3.07 0.57-2.48 0.86-3.52c0.3-1.04 0.84-2.68 1.21-3.65s1.19-2.81 1.83-4.09 1.55-2.93 2.02-3.68c0.47-0.74 1.21-1.84 1.64-2.45s1.09-1.5 1.48-1.98c0.39-0.49 1.25-1.5 1.92-2.25 0.68-0.76 1.88-1.97 2.68-2.71 0.8-0.73 1.99-1.77 2.65-2.29 0.65-0.53 1.9-1.45 2.76-2.03 0.86-0.59 2.1-1.38 2.76-1.77 0.66-0.38 1.88-1.03 2.71-1.45 0.83-0.41 2.05-0.98 2.71-1.26s1.96-0.77 2.89-1.08c0.92-0.32 2.59-0.81 3.7-1.08s2.7-0.61 3.53-0.74c0.83-0.14 2.13-0.31 2.89-0.39 0.77-0.07 1.67-0.15 2.02-0.18 0.34-0.03 1.87-0.03 3.39 0zm-0.9 9.76c-0.56 0-1.35 0.1-1.77 0.22-0.41 0.12-1.07 0.39-1.45 0.59s-1.07 0.76-1.55 1.23l-0.86 0.86-1.92 3.92c-1.06 2.16-2.76 5.6-3.77 7.64-1.03 2.06-1.94 3.75-2.06 3.8s-3.61 0.57-7.77 1.17c-4.15 0.59-7.96 1.16-8.46 1.27s-1.3 0.38-1.77 0.62c-0.52 0.26-1.15 0.73-1.62 1.2-0.44 0.43-0.96 1.14-1.22 1.62-0.25 0.47-0.54 1.24-0.65 1.72-0.15 0.61-0.19 1.17-0.14 1.87 0.04 0.55 0.19 1.35 0.34 1.76 0.14 0.42 0.44 1.06 0.66 1.43 0.28 0.46 2.34 2.55 6.48 6.59 3.99 3.89 6.07 6 6.07 6.16 0 0.14-0.63 3.88-1.4 8.32-1.24 7.18-1.39 8.19-1.33 9.09 0.05 0.64 0.19 1.34 0.39 1.87 0.18 0.48 0.58 1.21 0.88 1.64 0.31 0.43 0.86 1.01 1.23 1.29s0.9 0.62 1.17 0.76c0.28 0.14 0.82 0.35 1.2 0.48 0.46 0.16 1.06 0.23 1.82 0.23 0.73 0 1.41-0.08 1.92-0.23 0.44-0.13 4-1.92 8.17-4.11 4.07-2.14 7.43-3.89 7.48-3.89 0.04 0 3.33 1.71 7.3 3.8s7.56 3.93 7.97 4.08c0.42 0.15 1.12 0.31 1.57 0.36 0.46 0.05 1.21 0.02 1.7-0.05 0.49-0.08 1.25-0.32 1.7-0.52 0.45-0.21 1.11-0.6 1.47-0.88 0.36-0.27 0.91-0.85 1.23-1.3 0.31-0.44 0.72-1.18 0.89-1.66 0.21-0.54 0.35-1.23 0.39-1.87 0.06-0.9-0.09-1.94-1.32-9.14-0.77-4.47-1.4-8.21-1.4-8.32 0-0.1 2.73-2.85 6.07-6.1 4.25-4.14 6.19-6.12 6.48-6.6 0.23-0.38 0.54-1.02 0.69-1.43 0.23-0.62 0.28-1.01 0.27-2.2 0-1.2-0.05-1.57-0.29-2.2-0.17-0.42-0.49-1.06-0.73-1.43-0.23-0.37-0.71-0.94-1.05-1.27-0.35-0.33-0.95-0.77-1.35-0.98-0.39-0.21-1.03-0.48-1.41-0.59s-4.33-0.73-8.78-1.38c-4.44-0.64-8.11-1.19-8.14-1.23-0.03-0.03-1.76-3.5-3.84-7.71l-3.79-7.66-0.84-0.84c-0.51-0.51-1.16-1-1.63-1.24-0.43-0.22-1.11-0.48-1.5-0.59-0.4-0.1-1.18-0.18-1.73-0.17zm0.05 22.26c0.04 0 0.77 1.4 1.63 3.11 1.4 2.79 1.64 3.2 2.33 3.88 0.54 0.54 1.08 0.92 1.83 1.29l1.07 0.53 3.08 0.44c1.7 0.24 3.22 0.47 3.39 0.51 0.27 0.06 0.04 0.33-2.28 2.67-2 2.02-2.65 2.76-2.92 3.31-0.19 0.39-0.42 1.02-0.52 1.39s-0.18 1.12-0.18 1.67c0 0.61 0.2 2.16 0.51 3.95 0.28 1.62 0.49 2.98 0.47 3.03s-1.25-0.55-2.74-1.34c-1.49-0.78-3.02-1.54-3.4-1.68-0.46-0.18-1.1-0.29-1.89-0.33-0.87-0.05-1.42-0.01-2.01 0.14-0.51 0.13-1.94 0.8-3.78 1.76-1.62 0.85-2.97 1.51-2.99 1.47-0.02-0.05 0.2-1.42 0.49-3.04 0.34-1.96 0.52-3.3 0.51-4.01 0-0.72-0.09-1.35-0.26-1.9-0.14-0.46-0.48-1.16-0.75-1.57-0.26-0.41-1.54-1.8-2.83-3.08-1.91-1.88-2.31-2.34-2.13-2.41 0.13-0.05 1.5-0.27 3.06-0.48 1.55-0.22 3.09-0.47 3.41-0.57 0.32-0.09 0.92-0.32 1.32-0.52 0.43-0.21 1.09-0.7 1.57-1.17l0.83-0.82 1.56-3.12c0.86-1.71 1.59-3.11 1.62-3.11zm118.4 11.95c0.13 0 0.16 3.58 0.16 17.51 0 14.73-0.03 17.79-0.19 19.21-0.11 0.93-0.33 2.38-0.5 3.23-0.17 0.84-0.51 2.21-0.76 3.03s-0.71 2.14-1.03 2.94c-0.31 0.79-0.94 2.18-1.4 3.08s-1.39 2.46-2.06 3.46-1.72 2.41-2.32 3.12c-0.61 0.72-1.39 1.62-1.72 2.01-0.33 0.4-0.74 1.01-0.91 1.36-0.16 0.36-0.36 0.9-0.43 1.2s-0.13 0.95-0.13 1.44c0 0.48 0.09 1.22 0.19 1.62 0.11 0.41 0.35 1.03 0.53 1.38 0.22 0.42 1.26 1.58 2.93 3.28 1.42 1.46 3.07 3.18 3.65 3.84 0.59 0.66 1.39 1.56 1.77 2.01s1.15 1.39 1.71 2.08c0.55 0.69 1.58 2.04 2.29 2.99s1.93 2.68 2.7 3.84c0.78 1.16 1.87 2.87 2.44 3.8 0.56 0.94 1.44 2.47 1.96 3.42 0.52 0.94 1.32 2.45 1.78 3.36 0.45 0.91 1.22 2.54 1.72 3.62 0.49 1.08 1.3 3.03 1.81 4.31 0.51 1.29 1.3 3.47 1.77 4.84 0.6 1.77 1 2.73 1.35 3.25 0.28 0.42 0.79 0.98 1.13 1.26 0.35 0.27 0.91 0.63 1.24 0.8s0.96 0.39 1.4 0.49c0.67 0.16 3.02 0.19 15.98 0.19h15.19v15.32c-0.01 8.43-0.06 16.06-0.12 16.96s-0.21 2.08-0.32 2.64c-0.12 0.55-0.38 1.52-0.58 2.14-0.21 0.62-0.63 1.65-0.93 2.28-0.31 0.63-0.91 1.68-1.34 2.33-0.5 0.75-1.34 1.73-2.3 2.69-1.02 1.02-1.94 1.8-2.79 2.36-0.69 0.46-1.8 1.09-2.45 1.39s-1.55 0.67-2 0.82c-0.45 0.14-1.3 0.38-1.89 0.52s-1.81 0.31-2.71 0.39c-1.09 0.09-7.2 0.11-18.3 0.08l-16.68-0.04-0.93-0.22c-0.52-0.11-1.31-0.33-1.77-0.47-0.45-0.15-1.33-0.52-1.96-0.83s-1.63-0.92-2.22-1.37c-0.59-0.44-1.45-1.21-1.92-1.71-0.46-0.5-1.15-1.38-1.54-1.97-0.39-0.58-0.92-1.55-1.18-2.16s-0.59-1.56-0.73-2.1c-0.15-0.54-0.32-1.66-0.39-2.49-0.08-0.84-0.18-1.87-0.24-2.3-0.06-0.44-0.28-1.14-0.48-1.58-0.21-0.43-0.64-1.08-0.98-1.45-0.33-0.36-0.84-0.83-1.13-1.03-0.3-0.2-0.83-0.48-1.18-0.62s-1.02-0.32-1.48-0.39c-0.6-0.1-1.1-0.09-1.74 0-0.5 0.08-1.28 0.32-1.81 0.57-0.64 0.3-1.16 0.68-1.71 1.23-0.51 0.51-0.92 1.07-1.17 1.6-0.21 0.45-0.45 1.12-0.52 1.49-0.08 0.36-0.14 1.08-0.14 1.59 0 0.5 0.06 1.51 0.13 2.22 0.07 0.72 0.21 1.77 0.32 2.33 0.1 0.56 0.32 1.53 0.49 2.16s0.52 1.7 0.77 2.38 0.75 1.83 1.11 2.55c0.37 0.73 0.91 1.72 1.2 2.2 0.3 0.49 0.95 1.42 1.44 2.08s1.45 1.78 2.14 2.49c0.68 0.71 1.76 1.71 2.39 2.22s1.63 1.24 2.21 1.64c0.59 0.39 1.78 1.06 2.65 1.5 0.86 0.44 2.11 1.01 2.78 1.26 0.67 0.24 1.77 0.59 2.45 0.77 0.69 0.18 1.92 0.44 2.75 0.59l1.51 0.27 7.26 0.07 7.26 0.07-0.56 1.33c-0.31 0.72-1.1 2.42-1.76 3.77-0.66 1.34-1.57 3.13-2.03 3.96s-1.36 2.41-2.01 3.49c-0.65 1.09-1.83 2.95-2.62 4.13s-2.08 3.01-2.87 4.06c-0.78 1.05-1.98 2.59-2.66 3.42s-1.81 2.16-2.51 2.96c-0.69 0.79-2.26 2.46-3.47 3.69-1.21 1.24-3 2.97-3.97 3.85-0.96 0.88-2.52 2.24-3.45 3.02-0.94 0.78-2.72 2.18-3.97 3.12-1.24 0.93-3.23 2.33-4.4 3.11-1.18 0.78-2.85 1.84-3.71 2.36-0.87 0.52-2.65 1.53-3.97 2.24-1.31 0.71-2.66 1.46-2.99 1.67-0.33 0.2-0.85 0.65-1.15 0.99-0.31 0.34-0.71 0.93-0.89 1.29-0.18 0.37-0.41 0.98-0.51 1.35-0.15 0.56-0.18 2.49-0.18 11.24-0.01 6.07-0.06 10.97-0.13 11.52-0.07 0.51-0.24 1.39-0.38 1.95-0.15 0.55-0.45 1.44-0.68 1.98s-0.73 1.47-1.1 2.06-1.08 1.52-1.59 2.07c-0.51 0.54-1.41 1.36-2.01 1.81-0.6 0.46-1.6 1.07-2.23 1.37-0.62 0.31-1.5 0.67-1.95 0.82s-1.24 0.36-1.76 0.48l-0.94 0.21-18.6 0.04-18.59 0.05 0.04-8.4 0.03-8.41 1.7-0.09c0.93-0.04 2.72-0.17 3.96-0.29 1.25-0.11 3.14-0.31 4.22-0.45 1.07-0.14 3.1-0.45 4.52-0.68 1.41-0.25 2.91-0.53 3.33-0.64s1.07-0.35 1.45-0.53c0.38-0.19 1.05-0.68 1.48-1.11 0.56-0.55 0.92-1.03 1.23-1.7 0.24-0.51 0.49-1.32 0.57-1.8 0.1-0.61 0.1-1.12 0.01-1.71-0.08-0.45-0.22-1.08-0.33-1.38-0.11-0.31-0.36-0.82-0.57-1.14-0.21-0.33-0.68-0.87-1.05-1.22-0.36-0.35-0.94-0.77-1.28-0.95-0.34-0.17-0.93-0.4-1.3-0.51-0.38-0.11-1.07-0.2-1.54-0.2s-1.43 0.11-2.14 0.24c-0.72 0.14-1.98 0.36-2.81 0.5s-2.42 0.37-3.52 0.5c-1.11 0.14-2.67 0.31-3.46 0.39-0.8 0.07-2.44 0.18-3.65 0.26-1.4 0.08-15.01 0.12-37.4 0.12-29.59 0-35.64-0.03-38-0.19-1.54-0.1-3.58-0.27-4.53-0.38-0.95-0.1-2.54-0.3-3.53-0.45-0.98-0.14-2.69-0.42-3.8-0.62-1.11-0.21-2.38-0.37-2.83-0.37s-1.1 0.08-1.45 0.17c-0.34 0.1-0.83 0.26-1.07 0.37-0.25 0.11-0.76 0.42-1.13 0.71-0.38 0.28-0.88 0.75-1.11 1.04-0.23 0.3-0.56 0.81-0.73 1.13-0.16 0.33-0.39 0.98-0.5 1.45-0.14 0.57-0.18 1.14-0.13 1.73 0.04 0.49 0.19 1.22 0.33 1.63s0.43 1.01 0.64 1.34c0.21 0.32 0.65 0.84 0.97 1.15 0.33 0.3 0.85 0.7 1.16 0.88s0.85 0.41 1.2 0.52c0.34 0.11 1.56 0.37 2.7 0.58 1.14 0.2 2.87 0.49 3.84 0.62 0.97 0.14 2.78 0.37 4.02 0.51 1.25 0.13 2.84 0.28 3.53 0.32s1.44 0.1 1.66 0.14l0.41 0.06v16.86l-20.54-0.04-20.54-0.04-0.94-0.27c-0.52-0.15-1.29-0.43-1.7-0.61-0.4-0.18-1.05-0.53-1.44-0.79-0.38-0.25-1.08-0.82-1.55-1.26-0.47-0.45-1.1-1.18-1.4-1.64-0.31-0.46-0.71-1.17-0.89-1.59-0.18-0.41-0.46-1.21-0.61-1.76l-0.27-1.01-0.04-14.28c-0.04-10.92-0.01-14.57 0.11-15.51 0.12-0.92 0.12-1.46 0.02-2.11-0.07-0.48-0.31-1.24-0.52-1.69s-0.68-1.14-1.04-1.52c-0.37-0.39-1.46-1.24-2.43-1.91-0.97-0.66-2.62-1.83-3.65-2.61-1.04-0.78-2.6-1.99-3.46-2.7-0.87-0.71-2.51-2.13-3.66-3.15-1.15-1.03-3.07-2.88-4.28-4.11-1.2-1.24-2.9-3.07-3.77-4.07s-2.04-2.39-2.6-3.08c-0.55-0.69-1.56-2-2.24-2.9-0.67-0.89-2.03-2.85-3.02-4.34s-2.29-3.55-2.9-4.59-1.75-3.14-2.53-4.66c-0.78-1.53-1.82-3.68-2.32-4.79-0.49-1.1-1.25-2.9-1.68-4.01-0.44-1.11-1.12-2.95-1.51-4.09-0.4-1.14-1.07-3.32-1.51-4.85-0.44-1.52-1.06-3.92-1.37-5.34-0.32-1.42-0.72-3.4-0.9-4.41-0.18-1-0.46-2.84-0.63-4.08-0.16-1.25-0.4-3.29-0.52-4.53-0.18-1.81-0.23-3.5-0.23-8.31 0-4.02 0.05-6.65 0.16-7.86 0.09-1.01 0.28-2.73 0.41-3.84 0.14-1.11 0.42-3.03 0.63-4.28 0.21-1.24 0.58-3.17 0.82-4.28 0.24-1.1 0.7-2.97 1.01-4.15 0.32-1.17 0.88-3.1 1.25-4.28 0.37-1.17 1.06-3.18 1.54-4.46 0.49-1.28 1.23-3.15 1.66-4.15 0.43-1.01 1.31-2.92 1.96-4.26 0.65-1.33 1.56-3.12 2.02-3.96 0.46-0.85 1.32-2.36 1.92-3.36 0.59-1 1.82-2.93 2.72-4.28s2.3-3.33 3.1-4.4c0.81-1.07 2.2-2.83 3.09-3.9 0.9-1.08 2.24-2.63 3-3.46 0.75-0.83 2.34-2.48 3.54-3.67 1.19-1.19 3.11-2.98 4.26-3.99s2.75-2.37 3.56-3.01c0.81-0.65 2.18-1.71 3.04-2.36 0.87-0.66 2.76-1.98 4.22-2.96 1.45-0.97 3.46-2.25 4.46-2.84 1.01-0.59 2.45-1.42 3.21-1.84 0.76-0.41 2.25-1.19 3.31-1.71 1.05-0.53 2.78-1.35 3.83-1.83 1.06-0.48 3-1.29 4.31-1.81 1.32-0.52 3.16-1.21 4.09-1.53s2.63-0.87 3.77-1.22c1.15-0.34 3.3-0.93 4.79-1.3s3.58-0.85 4.65-1.06c1.08-0.21 2.46-0.47 3.09-0.57 0.62-0.11 1.75-0.28 2.51-0.38 0.76-0.11 2.09-0.28 2.96-0.38 0.86-0.1 2.55-0.25 3.75-0.34l2.17-0.15 0.77 0.87c0.42 0.48 1.65 1.75 2.73 2.83 1.08 1.07 2.61 2.48 3.4 3.14l1.44 1.2-3.26 0.07c-2.02 0.04-3.48 0.13-3.83 0.23-0.31 0.09-0.9 0.33-1.31 0.54-0.43 0.22-1.09 0.72-1.52 1.15-0.42 0.43-0.91 1.06-1.1 1.41s-0.43 0.97-0.53 1.38c-0.11 0.41-0.19 1.11-0.19 1.57 0 0.45 0.08 1.15 0.18 1.55 0.1 0.39 0.34 1.01 0.52 1.37 0.18 0.35 0.61 0.95 0.96 1.31 0.34 0.37 0.91 0.85 1.24 1.06 0.34 0.22 0.97 0.52 1.4 0.67l0.79 0.27 42.15 0.03c28.51 0.03 42.44-0.01 43.03-0.09 0.57-0.09 1.25-0.31 1.9-0.63 0.75-0.37 1.21-0.7 1.7-1.24 0.37-0.4 0.83-1.01 1.02-1.36s0.43-0.96 0.54-1.37c0.1-0.41 0.19-1.11 0.19-1.57 0-0.45-0.09-1.16-0.19-1.57-0.11-0.41-0.35-1.03-0.54-1.38s-0.68-0.98-1.1-1.41c-0.43-0.43-1.09-0.93-1.51-1.15-0.42-0.21-1.01-0.45-1.32-0.54-0.35-0.1-1.81-0.19-3.83-0.23l-3.26-0.07 1.4-1.17c0.77-0.64 2.16-1.9 3.08-2.79 0.93-0.9 2.22-2.23 2.86-2.96l1.17-1.33h11.54v7.52c0 5.97 0.04 7.69 0.18 8.35 0.1 0.46 0.32 1.12 0.49 1.46 0.18 0.34 0.54 0.91 0.82 1.25 0.28 0.35 0.84 0.87 1.26 1.15 0.43 0.28 1.15 0.64 1.62 0.79 0.59 0.2 1.15 0.28 1.85 0.28 0.61 0 1.33-0.09 1.81-0.22 0.44-0.13 1.12-0.44 1.51-0.69 0.4-0.26 0.93-0.7 1.2-0.98s0.65-0.76 0.85-1.06 0.48-0.9 0.62-1.35l0.25-0.79v-10.72c0-6 0.06-11.22 0.12-11.87 0.08-0.68 0.27-1.56 0.49-2.15 0.2-0.55 0.6-1.4 0.89-1.89 0.28-0.49 0.82-1.29 1.19-1.78 0.36-0.49 1.07-1.34 1.57-1.89s1.61-1.62 2.48-2.38c0.86-0.76 2.32-1.94 3.23-2.63 0.92-0.68 2.26-1.64 2.99-2.13s2.16-1.4 3.17-2.02c1-0.63 2.87-1.72 4.14-2.43s3.81-2.03 5.65-2.95c1.83-0.92 4.29-2.1 5.47-2.64s3.19-1.43 4.47-1.98 3.46-1.45 4.84-2 3.88-1.5 5.54-2.11 3.1-1.14 3.21-1.18c0.1-0.04 0.25-0.07 0.34-0.08zm-31.71 89.1c-0.38 0-1.02 0.09-1.43 0.18-0.4 0.1-1.08 0.36-1.51 0.58-0.65 0.34-1.85 1.49-7.63 7.27-5.91 5.9-6.93 6.98-7.29 7.66-0.22 0.45-0.49 1.1-0.58 1.45-0.1 0.36-0.18 1.08-0.18 1.6s0.09 1.26 0.2 1.63c0.12 0.38 0.35 0.97 0.53 1.31 0.17 0.35 0.66 0.98 1.09 1.4 0.42 0.43 1.05 0.92 1.39 1.09 0.35 0.18 0.94 0.41 1.31 0.52 0.39 0.12 1.14 0.21 1.72 0.21 0.66 0 1.31-0.09 1.8-0.24 0.42-0.13 1.03-0.39 1.36-0.58 0.36-0.21 2.35-2.08 4.95-4.67l4.34-4.32 4.15 4.15c2.28 2.29 4.48 4.38 4.89 4.65 0.4 0.28 1.1 0.61 1.55 0.75 0.54 0.17 1.17 0.26 1.86 0.26s1.32-0.09 1.86-0.25c0.44-0.14 1.14-0.47 1.55-0.74 0.41-0.26 0.98-0.74 1.25-1.06 0.28-0.31 0.66-0.85 0.85-1.19 0.18-0.34 0.42-0.95 0.53-1.36 0.1-0.41 0.19-1.11 0.19-1.57s-0.09-1.16-0.19-1.57c-0.11-0.4-0.36-1.05-0.57-1.44-0.3-0.56-1.87-2.2-7.39-7.71-5.53-5.52-7.15-7.07-7.67-7.32-0.36-0.18-1.01-0.41-1.45-0.52-0.43-0.1-1.09-0.18-1.48-0.17zm-91.82 158.02h24.89v19.01l-0.92-0.09c-0.5-0.05-8.01-0.1-16.7-0.1-8.85 0-18.91 0.06-22.9 0.15-3.91 0.08-7.63 0.19-8.27 0.23l-1.16 0.07v-9.55c0-5.25 0.03-9.59 0.08-9.64 0.05-0.04 11.29-0.08 24.98-0.08zm-236.09 84.03v50.88h29.8c8.65 0 14.47-5.45 14.47-14.47 0-5.96-2.62-10.61-7.2-12.86 1.96-2.33 2.98-5.52 2.98-9.67 0-8.72-4.8-13.88-15.34-13.88h-24.71zm127.43 0v15.55c-2.32-3.49-6.47-5.37-13.66-5.37-14.03 0-20.93 7.19-20.93 20.71 0 12.94 6.39 20.72 20.93 20.72 7.12 0 11.27-1.89 13.66-5.46v4.73h10.18v-50.88h-10.18zm110.6 0v10.9h-5.23v8.72h5.23v17.09c0 11.33 6.61 14.17 13.08 14.17h12.51v-9.45h-10.25c-2.76 0-5.16-1.09-5.16-5.02v-16.79h15.41v-8.72h-15.41v-10.9h-10.18zm47.01 0v50.88h10.9v-50.88h-10.9zm10.9 0l9.45 50.88h11.63l-9.45-50.88h-11.63zm21.08 50.88h11.62l9.45-50.88h-11.63l-9.44 50.88zm21.07-50.88v50.88h10.91v-50.88h-10.91zm63.63 0v50.88h10.17v-10.1l4.15-4.66 11.77 14.76h12.36l-17.66-21.88 16.2-18.1h-12.35l-14.47 16.43v-27.33h-10.17zm-390.82 9.45h12.8c3.48 0 5.45 1.81 5.45 5.38 0 3.63-1.75 5.52-5.45 5.52h-12.8v-10.9zm150.14 0.72c-14.03 0-20.94 7.2-20.94 20.72 0 12.94 6.4 20.71 20.94 20.71 7.12 0 11.26-1.89 13.66-5.45v4c0 5.89-3.85 10.1-12.14 10.1-3.85 0-7.34-1.52-9.66-5.88h-10.98c2.18 11.05 10.98 15.7 20.64 15.7 12.8 0 22.32-7.78 22.32-17.23v-41.94h-10.18v4.65c-2.32-3.49-6.47-5.38-13.66-5.38zm49.43 0c-14.03 0-22.39 7.2-22.39 20.72 0 12.94 7.85 20.71 22.39 20.71 11.85 0 19.7-5.23 21.88-15.04h-10.98c-1.81 3.49-5.59 5.23-10.9 5.23-7.34 0-11.56-3.49-12.14-9.37h34.53v-1.53c0-12.94-7.85-20.72-22.39-20.72zm163.28 0c-14.03 0-20.94 7.2-20.94 20.72 0 12.94 6.4 20.71 20.94 20.71 7.12 0 11.26-1.89 13.66-5.45v4.73h10.18v-39.98h-10.18v4.65c-2.32-3.49-6.47-5.38-13.66-5.38zm83.14 0c-14.02 0-22.38 7.2-22.38 20.72 0 12.94 7.85 20.71 22.38 20.71 11.85 0 19.7-5.23 21.88-15.04h-10.97c-1.82 3.49-5.6 5.23-10.91 5.23-7.34 0-11.55-3.49-12.13-9.37h34.52v-1.53c0-12.94-7.85-20.72-22.39-20.72zm-410.33 0.73v21.81c0 11.77 7.92 18.89 18.97 18.89 6.69 0 10.76-1.81 13.16-5.23v4.51h10.17v-39.98h-10.17v21.81c0 5.88-4.51 9.08-10.98 9.08-6.69 0-10.97-3.49-10.97-9.08v-21.81h-10.18zm435.78 0v39.98h10.18v-19.05c0-6.25 5.6-12.21 14.97-12.21h4.51v-8.72h-4.51c-6.97 0-11.99 1.96-14.97 6.91v-6.91h-10.18zm-319.85 9.09c7.92 0 12.21 4.07 12.21 10.9 0 7.12-4.51 10.9-12.21 10.9-7.92 0-12.21-4.07-12.21-10.9 0-7.12 4.51-10.9 12.21-10.9zm47.98 0c5.31 0 8.94 1.81 10.83 5.01h-21.66c1.89-3.27 5.67-5.01 10.83-5.01zm164.73 0c7.92 0 12.21 4.07 12.21 10.9 0 7.12-4.5 10.9-12.21 10.9-7.92 0-12.21-4.07-12.21-10.9 0-7.12 4.51-10.9 12.21-10.9zm81.69 0c5.31 0 8.94 1.81 10.83 5.01h-21.66c1.89-3.27 5.67-5.01 10.83-5.01zm-341.67 0c7.93 0 12.21 4.07 12.21 10.9 0 7.12-4.5 10.9-12.21 10.9-7.92 0-12.21-4.07-12.21-10.9 0-7.12 4.51-10.9 12.21-10.9zm-104.32 9.81h17.01c3.34 0 5.45 2.25 5.45 5.45 0 3.35-2.25 5.45-5.45 5.45h-17.01v-10.9z"
     id="shadow" /><animate
     fill="freeze"
     repeatCount="1"
     keyTimes="0; 0.5; 1"
     values="5; 30; 5"
     begin="0s"
     dur="4s"
     to="5"
     from="5"
     attributeName="stdDeviation"
     xlink:href="#blur1" /><animate
     fill="freeze"
     repeatCount="1"
     keyTimes="0; 0.5; 1"
     values="0.6; 0.1; 0.6"
     begin="0s"
     dur="4s"
     to="0.1"
     from="0.6"
     attributeName="opacity"
     xlink:href="#shadow" /><g
     id="logo-hover"><g
       transform="matrix(1.0972,0,0,1.0972,-49.765,-48.474)"
       id="logo-group"><path
         stroke-miterlimit="2"
         class="c1"
         d="m 278.68,567.32 h 22.524 c 9.6056,0 13.978,4.7035 13.978,12.653 0,3.776 -0.92742,6.6908 -2.7161,8.8107 4.1735,2.0536 6.5584,6.2934 6.5584,11.725 0,8.2145 -5.2997,13.183 -13.183,13.183 h -27.161 z m 21.596,18.549 c 3.3786,0 4.9685,-1.7224 4.9685,-5.0347 0,-3.246 -1.7887,-4.9022 -4.9685,-4.9022 h -11.659 v 9.9368 z m 3.8423,18.549 c 2.9148,0 4.9684,-1.9211 4.9684,-4.9684 0,-2.9148 -1.9211,-4.9684 -4.9684,-4.9684 h -15.502 v 9.9368 z"
         style="font-variant-ligatures:normal;fill:#702bed;stroke-width:0;stroke-miterlimit:2"
         id="path12" /><path
         stroke-miterlimit="2"
         class="c1"
         d="m 321.11,597.13 v -19.874 h 9.2746 v 19.874 c 0,5.1009 3.9082,8.2807 10.003,8.2807 5.8955,0 10.003,-2.9148 10.003,-8.2807 v -19.874 h 9.2746 v 36.435 h -9.2746 v -4.1072 c -2.1859,3.1135 -5.8955,4.7697 -11.99,4.7697 -10.07,10e-6 -17.29,-6.4921 -17.29,-17.224 z"
         style="font-variant-ligatures:normal;fill:#702bed;stroke-width:0;stroke-miterlimit:2"
         id="path15" /><path
         stroke-miterlimit="2"
         class="c1"
         d="m 363.29,595.48 c 0,-12.322 6.2933,-18.88 19.079,-18.88 6.5583,0 10.334,1.7224 12.454,4.9022 v -14.177 h 9.2744 v 46.372 h -9.2744 v -4.3059 c -2.1861,3.246 -5.9621,4.9684 -12.454,4.9684 -13.249,0 -19.079,-7.0883 -19.079,-18.88 z m 20.404,9.9369 c 7.022,0 11.129,-3.4448 11.129,-9.9369 0,-6.2271 -3.9085,-9.9368 -11.129,-9.9368 -7.0221,0 -11.129,3.4448 -11.129,9.9368 10e-6,6.2271 3.9085,9.9369 11.129,9.9369 z"
         style="font-variant-ligatures:normal;fill:#702bed;stroke-width:0;stroke-miterlimit:2"
         id="path18" /><path
         stroke-miterlimit="2"
         class="c1"
         d="m 408.03,616.87 h 10.003 c 2.1199,3.9748 5.2997,5.3659 8.8106,5.3659 7.552,0 11.063,-3.8422 11.063,-9.2082 v -3.6435 c -2.1861,3.246 -5.962,4.9684 -12.454,4.9684 -13.249,0 -19.079,-7.0883 -19.079,-18.88 0,-12.322 6.2933,-18.88 19.079,-18.88 6.5584,0 10.334,1.7224 12.454,4.9022 v -4.2397 h 9.2744 v 38.224 c 0,8.6119 -8.6782,15.7 -20.337,15.7 -8.8106,0 -16.826,-4.2397 -18.814,-14.309 z m 18.748,-11.46 c 7.022,0 11.129,-3.4448 11.129,-9.9369 0,-6.2271 -3.9084,-9.9368 -11.129,-9.9368 -7.0222,0 -11.129,3.4448 -11.129,9.9368 0,6.2271 3.9085,9.9369 11.129,9.9369 z"
         style="font-variant-ligatures:normal;fill:#702bed;stroke-width:0;stroke-miterlimit:2"
         id="path21" /><path
         stroke-miterlimit="2"
         class="c1"
         d="m 450.1,595.48 c 0,-12.322 7.6183,-18.88 20.404,-18.88 13.249,0 20.404,7.0883 20.404,18.88 v 1.3912 h -31.467 c 0.52996,5.3659 4.3722,8.5457 11.063,8.5457 4.8358,0 8.2807,-1.5899 9.9367,-4.7697 h 10.003 c -1.9874,8.9432 -9.1419,13.713 -19.94,13.713 -13.249,0 -20.404,-7.0883 -20.404,-18.88 z m 30.274,-5.3659 c -1.7224,-2.9149 -5.0347,-4.571 -9.8706,-4.571 -4.7036,0 -8.1483,1.5899 -9.8707,4.571 z"
         style="font-variant-ligatures:normal;fill:#702bed;stroke-width:0;stroke-miterlimit:2"
         id="path24" /><path
         stroke-miterlimit="2"
         class="c1"
         d="m 495.62,600.78 v -15.568 h -4.7694 v -7.9495 h 4.7694 v -9.9368 h 9.2746 v 9.9368 h 14.044 v 7.9495 h -14.044 v 15.303 c 0,3.5773 2.1859,4.571 4.7033,4.571 h 9.3406 v 8.6119 h -11.394 c -5.896,10e-6 -11.925,-2.5836 -11.925,-12.918 z"
         style="font-variant-ligatures:normal;fill:#702bed;stroke-width:0;stroke-miterlimit:2"
         id="path27" /><path
         stroke-miterlimit="2"
         class="c1"
         d="m 548.4,567.32 v 46.372 h -9.9367 V 567.32 Z m 10.599,0 8.612,46.372 h -10.6 l -8.612,-46.372 z m 17.224,0 h 10.599 l -8.612,46.372 h -10.599 z m 10.599,0 h 9.937 v 46.372 h -9.937 z"
         style="font-variant-ligatures:normal;fill:#702bed;stroke-width:0;stroke-miterlimit:2"
         id="path30" /><path
         stroke-miterlimit="2"
         class="c1"
         d="m 600.24,595.48 c 0,-12.322 6.2933,-18.88 19.079,-18.88 6.5583,0 10.334,1.7224 12.454,4.9022 v -4.2397 h 9.2744 v 36.435 h -9.2744 v -4.3059 c -2.1861,3.246 -5.9621,4.9684 -12.454,4.9684 -13.249,10e-6 -19.079,-7.0883 -19.079,-18.88 z m 20.404,9.9369 c 7.022,0 11.129,-3.4448 11.129,-9.9369 0,-6.2271 -3.9085,-9.9368 -11.129,-9.9368 -7.022,0 -11.129,3.4448 -11.129,9.9368 0,6.2271 3.9085,9.9369 11.129,9.9369 z"
         style="font-variant-ligatures:normal;fill:#702bed;stroke-width:0;stroke-miterlimit:2"
         id="path33" /><path
         stroke-miterlimit="2"
         class="c1"
         d="m 654.08,567.32 v 24.908 l 13.183,-14.972 h 11.262 l -14.773,16.495 16.098,19.94 h -11.262 l -10.732,-13.448 -3.7761,4.2397 v 9.2082 h -9.2744 v -46.372 z"
         style="font-variant-ligatures:normal;fill:#702bed;stroke-width:0;stroke-miterlimit:2"
         id="path36" /><path
         stroke-miterlimit="2"
         class="c1"
         d="m 674.7,595.48 c 0,-12.322 7.6183,-18.88 20.404,-18.88 13.249,0 20.404,7.0883 20.404,18.88 v 1.3912 h -31.467 c 0.52996,5.3659 4.3722,8.5457 11.063,8.5457 4.8358,0 8.2807,-1.5899 9.9367,-4.7697 h 10.003 c -1.9874,8.9432 -9.1419,13.713 -19.94,13.713 -13.249,0 -20.404,-7.0883 -20.404,-18.88 z m 30.274,-5.3659 c -1.7224,-2.9149 -5.0347,-4.571 -9.8706,-4.571 -4.7036,0 -8.1483,1.5899 -9.8707,4.571 z"
         style="font-variant-ligatures:normal;fill:#702bed;stroke-width:0;stroke-miterlimit:2"
         id="path39" /><path
         stroke-miterlimit="2"
         class="c1"
         d="m 718.3,577.26 h 9.2744 v 6.2933 c 2.7162,-4.5047 7.2872,-6.2933 13.647,-6.2933 h 4.1072 v 7.9495 h -4.1072 c -8.5457,0 -13.647,5.4322 -13.647,11.129 v 17.356 H 718.3 Z"
         style="font-variant-ligatures:normal;fill:#702bed;stroke-width:0;stroke-miterlimit:2"
         id="path42" /><path
         style="fill:#0051df;stroke-width:2.0625"
         d="m 498.47,157.14 c -0.35894,0.005 -0.91969,0.0734 -1.2442,0.15252 -0.32567,0.0791 -0.89332,0.29013 -1.2614,0.47017 -0.38645,0.18806 -0.9759,0.62956 -1.3887,1.0412 -0.49767,0.49539 -0.83941,0.97245 -1.1158,1.5561 -0.23853,0.50457 -0.44265,1.1617 -0.5103,1.6433 -0.0722,0.51833 -0.0734,1.0871 -0.002,1.6054 0.0734,0.53669 0.26147,1.1124 0.56764,1.735 0.33487,0.68347 0.63644,1.0974 1.1238,1.5481 0.36695,0.33945 0.92544,0.7557 1.2431,0.92772 0.31649,0.17085 0.87955,0.38989 1.25,0.48736 0.37154,0.0963 1.0149,0.17546 1.43,0.17546 0.41512,0 1.0504,-0.0768 1.4117,-0.17086 0.36122,-0.094 0.90935,-0.29931 1.2178,-0.45641 0.30847,-0.15596 0.87611,-0.57566 1.2603,-0.93115 0.51949,-0.48048 0.81764,-0.88645 1.1582,-1.5802 0.32338,-0.65594 0.48853,-1.1708 0.55733,-1.735 0.0528,-0.4415 0.0528,-1.1617 0,-1.5997 -0.0631,-0.51489 -0.23968,-1.0986 -0.49999,-1.6444 -0.27752,-0.58485 -0.6227,-1.0676 -1.1192,-1.563 -0.46559,-0.46443 -0.98047,-0.84057 -1.4633,-1.0676 -0.40938,-0.19266 -1.0183,-0.40825 -1.3532,-0.47706 -0.33371,-0.07 -0.90135,-0.1227 -1.2614,-0.11697 z m -0.0229,18.925 c -0.15716,0.007 -0.56647,0.0596 -0.90938,0.11583 -0.34287,0.0573 -1.0045,0.28785 -1.4713,0.51146 -0.5596,0.26949 -1.0745,0.63529 -1.5183,1.0791 -0.44379,0.44379 -0.80961,0.95869 -1.0779,1.5172 -0.24884,0.51603 -0.45181,1.1571 -0.52062,1.6421 -0.0712,0.50341 -0.0734,1.0734 -0.006,1.5447 0.0586,0.41167 0.18358,0.96556 0.27751,1.2316 0.0928,0.26604 0.29931,0.70409 0.45641,0.97245 0.1582,0.26833 0.49768,0.70754 0.75457,0.97589 0.25802,0.2672 0.73736,0.66856 1.0665,0.89102 0.32911,0.22246 0.92657,0.50686 1.3279,0.63071 0.48965,0.15252 1.055,0.22706 1.727,0.22706 0.57797,0 1.2626,-0.0768 1.6226,-0.18232 0.34289,-0.10092 0.88071,-0.33027 1.1961,-0.50915 0.31536,-0.18004 0.79242,-0.53782 1.0608,-0.79584 0.2672,-0.25802 0.66856,-0.7385 0.89102,-1.0676 0.22248,-0.32911 0.51146,-0.9346 0.64104,-1.344 0.1617,-0.50915 0.23622,-1.0538 0.23622,-1.7201 0,-0.6697 -0.0757,-1.2133 -0.24081,-1.7373 -0.1318,-0.41972 -0.45297,-1.0825 -0.71328,-1.4724 -0.26031,-0.38989 -0.73736,-0.91969 -1.0596,-1.1754 -0.32224,-0.25573 -0.89562,-0.61006 -1.274,-0.78781 -0.37842,-0.17659 -1.0229,-0.37498 -1.4334,-0.44034 -0.40939,-0.0654 -0.87382,-0.11352 -1.0321,-0.10665 z m -18.405,3.8542 c -0.37842,-0.0321 -0.99538,-0.0126 -1.3715,0.0424 -0.37614,0.0562 -1.047,0.27522 -1.4908,0.48737 -0.44379,0.21331 -1.047,0.59976 -1.3406,0.86122 -0.29357,0.26146 -0.71213,0.74539 -0.93002,1.0768 -0.21788,0.3314 -0.50686,0.9002 -0.64102,1.2649 -0.13532,0.36351 -0.27751,1.0091 -0.31536,1.4334 -0.039,0.42314 -0.0126,1.0802 0.0573,1.4587 0.0711,0.37843 0.30273,1.0493 0.51488,1.4908 0.21215,0.4415 0.58369,1.0309 0.82566,1.3084 0.24197,0.27867 0.74194,0.70068 1.1112,0.93918 0.36812,0.23853 1.0057,0.54471 1.4174,0.68232 0.54357,0.18003 1.0218,0.24771 1.7465,0.2454 0.70984,-0.002 1.2087,-0.0745 1.727,-0.24885 0.40021,-0.13416 0.99194,-0.41398 1.3142,-0.6204 0.32337,-0.20641 0.83712,-0.65249 1.141,-0.99193 0.30505,-0.3383 0.6789,-0.86236 0.83256,-1.164 0.15242,-0.30159 0.35434,-0.84286 0.44839,-1.2041 0.094,-0.36123 0.17076,-1.024 0.17076,-1.4724 0,-0.44839 -0.0837,-1.0952 -0.18458,-1.438 -0.10209,-0.34287 -0.31305,-0.87611 -0.47017,-1.1869 -0.15716,-0.30963 -0.5447,-0.83713 -0.86119,-1.172 -0.31653,-0.33485 -0.81421,-0.7603 -1.1066,-0.94607 -0.29242,-0.18692 -0.84057,-0.44034 -1.219,-0.56306 -0.37842,-0.12385 -0.99767,-0.25113 -1.3761,-0.28324 z m 37.385,-0.07 c -0.12623,0.007 -0.48737,0.0562 -0.80273,0.10894 -0.31535,0.0528 -0.80388,0.17774 -1.0848,0.27637 -0.28095,0.0998 -0.75226,0.33601 -1.047,0.52522 -0.29473,0.18921 -0.7947,0.61696 -1.1112,0.9518 -0.31649,0.33485 -0.7041,0.86235 -0.8612,1.172 -0.15716,0.31077 -0.36811,0.84401 -0.47016,1.1869 -0.10086,0.34287 -0.1846,1.0172 -0.1846,1.4988 0,0.48164 0.0825,1.1559 0.18356,1.4988 0.0998,0.34287 0.3383,0.9174 0.52867,1.2775 0.19139,0.36007 0.64102,0.9346 0.99996,1.2775 0.35893,0.34287 0.95982,0.7775 1.3371,0.96785 0.37614,0.19037 0.90365,0.40481 1.1731,0.47706 0.26836,0.0722 0.91283,0.13187 1.43,0.13187 0.62613,0 1.1972,-0.0791 1.7041,-0.23624 0.41972,-0.12958 1.0768,-0.44607 1.4598,-0.7018 0.38416,-0.25687 0.88413,-0.68116 1.1112,-0.94492 0.22821,-0.26375 0.56535,-0.77634 0.74883,-1.1387 0.18459,-0.36239 0.41741,-1.008 0.51832,-1.4334 0.12396,-0.5298 0.16047,-1.0332 0.11468,-1.5951 -0.0367,-0.45068 -0.17779,-1.1215 -0.3142,-1.4908 -0.13654,-0.36812 -0.42659,-0.94034 -0.64447,-1.2717 -0.21788,-0.3314 -0.63645,-0.81535 -0.93002,-1.0768 -0.29358,-0.26146 -0.89447,-0.64563 -1.336,-0.85549 -0.4415,-0.20985 -1.1387,-0.4346 -1.5481,-0.49999 -0.40939,-0.0642 -0.8486,-0.11238 -0.97474,-0.10549 z m -18.921,15.248 c -0.50457,0.004 -1.149,0.07 -1.4334,0.14907 -0.28325,0.0803 -0.76717,0.26605 -1.0757,0.41399 -0.30733,0.14679 -0.85777,0.5447 -1.2224,0.883 -0.36467,0.33713 -0.82108,0.86006 -1.0137,1.1605 -0.19388,0.30045 -0.43232,0.77521 -0.53095,1.055 -0.0986,0.2798 -0.22704,0.84515 -0.28553,1.2568 -0.0666,0.47132 -0.0642,1.0412 0.006,1.5435 0.0699,0.49082 0.27291,1.1284 0.52864,1.6605 0.27522,0.57222 0.63874,1.0871 1.078,1.5263 0.42774,0.42775 0.95067,0.80044 1.4793,1.0539 0.44952,0.21559 1.1892,0.45412 1.6433,0.53095 0.63187,0.10778 1.0286,0.11009 1.6857,0.0103 0.53208,-0.0814 1.1662,-0.28095 1.6628,-0.52521 0.4415,-0.2156 1.0183,-0.57796 1.2821,-0.80389 0.26376,-0.2259 0.68461,-0.719 0.93574,-1.0951 0.25115,-0.37614 0.57108,-1.0263 0.70985,-1.4449 0.18459,-0.55502 0.25228,-1.0275 0.25,-1.75 -0.004,-0.66053 -0.0802,-1.2293 -0.23166,-1.7075 -0.12499,-0.39334 -0.39219,-0.97245 -0.59287,-1.2866 -0.20171,-0.3142 -0.66856,-0.85088 -1.0389,-1.1938 -0.37041,-0.34287 -0.95181,-0.75457 -1.2935,-0.91625 -0.34058,-0.1617 -0.84631,-0.34518 -1.1227,-0.40938 -0.27751,-0.0642 -0.91625,-0.11352 -1.4208,-0.11123 z m -18.913,3.782 c -0.50915,0.004 -1.2052,0.0826 -1.547,0.1743 -0.34174,0.0917 -0.90938,0.33027 -1.2614,0.53095 -0.35205,0.20068 -0.90709,0.63645 -1.2339,0.96901 -0.34632,0.3532 -0.77061,0.96211 -1.016,1.4575 -0.2798,0.56765 -0.46328,1.1433 -0.547,1.7247 -0.094,0.65822 -0.0906,1.0734 0.0149,1.6914 0.078,0.45068 0.29587,1.1433 0.48508,1.5401 0.18922,0.39792 0.60205,1.0034 0.91625,1.3474 0.3142,0.34402 0.81992,0.78552 1.1238,0.98047 0.30389,0.19494 0.84631,0.45525 1.2052,0.57911 0.35893,0.12269 0.95409,0.25801 1.3222,0.30044 0.38187,0.0424 1.0263,0.0148 1.4965,-0.0642 0.47246,-0.0791 1.1628,-0.30733 1.6123,-0.53208 0.45068,-0.22591 1.0504,-0.65709 1.4059,-1.0126 0.34058,-0.34174 0.78897,-0.93918 0.99768,-1.3291 0.20757,-0.38989 0.44838,-0.97474 0.53439,-1.2981 0.086,-0.32338 0.15716,-0.9518 0.15819,-1.3956 0,-0.44379 -0.078,-1.1112 -0.17428,-1.4828 -0.0975,-0.3704 -0.31535,-0.93576 -0.48621,-1.2568 -0.17098,-0.31993 -0.62269,-0.89675 -1.0034,-1.2832 -0.38071,-0.38645 -0.94836,-0.83139 -1.2626,-0.99078 -0.31306,-0.15826 -0.84975,-0.37154 -1.1926,-0.47362 -0.36351,-0.10778 -1.0091,-0.18119 -1.5481,-0.17659 z m 37.839,-0.002 c -0.56075,0.005 -1.1788,0.0883 -1.5756,0.2156 -0.36007,0.11467 -0.89562,0.35091 -1.1903,0.52292 -0.29471,0.17317 -0.74423,0.50228 -0.99881,0.73163 -0.25573,0.2282 -0.66398,0.72361 -0.90708,1.0997 -0.24427,0.37614 -0.5516,1.0366 -0.68232,1.469 -0.19264,0.63187 -0.22819,0.99194 -0.18686,1.8394 0.0332,0.65594 0.14231,1.2993 0.28897,1.7041 0.12953,0.35778 0.40481,0.89562 0.61123,1.1961 0.20641,0.30044 0.61122,0.77176 0.89791,1.047 0.28668,0.27407 0.86695,0.67201 1.2901,0.88415 0.43461,0.21673 1.1296,0.44608 1.5963,0.52407 0.47017,0.0791 1.1146,0.10665 1.4965,0.0642 0.36811,-0.0424 0.96327,-0.17774 1.3222,-0.30044 0.35893,-0.12386 0.89675,-0.38187 1.1949,-0.57338 0.29815,-0.1915 0.76832,-0.59057 1.0447,-0.88757 0.27636,-0.297 0.61809,-0.72819 0.75915,-0.9587 0.14107,-0.2305 0.36007,-0.72016 0.48737,-1.0894 0.12725,-0.36925 0.26031,-1.0321 0.297,-1.4736 0.0435,-0.547 0.006,-1.055 -0.12148,-1.594 -0.1021,-0.43461 -0.35205,-1.1043 -0.55618,-1.4885 -0.20419,-0.38416 -0.65593,-0.98276 -1.0046,-1.3314 -0.3486,-0.34747 -0.89331,-0.77177 -1.2121,-0.94378 -0.3188,-0.17086 -0.883,-0.3899 -1.2534,-0.48737 -0.37154,-0.0963 -1.0906,-0.17317 -1.5974,-0.16973 z m -19.149,15.147 c -1.3279,0.009 -2.9552,0.0585 -3.618,0.11123 -0.66167,0.0516 -1.8749,0.17774 -2.6949,0.27866 -0.81993,0.10205 -2.1869,0.31191 -3.0389,0.46788 -0.85088,0.15597 -2.3473,0.48508 -3.3256,0.73047 -0.97703,0.2454 -2.4484,0.66168 -3.2682,0.92429 -0.81993,0.2626 -2.29,0.79242 -3.2682,1.1754 -0.97702,0.38301 -2.8865,1.2534 -4.243,1.9346 -1.3555,0.68002 -3.228,1.7155 -4.1605,2.3003 -0.93115,0.58484 -2.3715,1.5527 -3.1994,2.1524 -0.82795,0.5986 -2.1547,1.6295 -2.9494,2.289 -0.7947,0.65938 -2.3496,2.1044 -3.4551,3.2109 -1.1055,1.1066 -2.5033,2.6043 -3.1053,3.3301 -0.6032,0.72474 -1.5366,1.9116 -2.0745,2.6375 -0.53898,0.72474 -1.3658,1.9116 -1.8371,2.6375 -0.47133,0.72474 -1.1685,1.86 -1.5481,2.5228 -0.38071,0.66167 -1.0366,1.8921 -1.4575,2.7338 -0.42086,0.8417 -1.0997,2.3312 -1.5068,3.3107 -0.40825,0.97932 -0.99651,2.5424 -1.3073,3.4735 -0.31078,0.93115 -0.77177,2.4861 -1.024,3.4563 -0.25229,0.96901 -0.58713,2.4323 -0.74539,3.2522 -0.1571,0.81993 -0.39105,2.2706 -0.51833,3.2235 -0.12614,0.9518 -0.29013,2.681 -0.36351,3.8416 -0.0757,1.2075 -0.10321,3.0676 -0.0631,4.3508 0.0378,1.2328 0.15136,3.0389 0.25113,4.0136 0.10091,0.97473 0.30846,2.5193 0.46214,3.4345 0.15366,0.91396 0.51488,2.6169 0.80388,3.7843 0.28784,1.1674 0.77177,2.8691 1.0734,3.7843 0.30273,0.91396 0.7947,2.282 1.0928,3.0389 0.29931,0.75685 0.82222,1.9644 1.1628,2.6846 0.33945,0.72016 0.59402,1.3337 0.56306,1.3635 -0.0298,0.031 -0.92084,0.17316 -1.9781,0.31535 -1.0585,0.14335 -2.8531,0.42086 -3.9885,0.61696 -1.1353,0.1961 -3.0962,0.58713 -4.3576,0.86808 -1.2614,0.28096 -3.2625,0.77062 -4.4459,1.0883 -1.1846,0.31651 -3.0653,0.86351 -4.1788,1.2144 -1.1135,0.35092 -2.751,0.89791 -3.6387,1.2156 -0.88644,0.31764 -2.3348,0.86235 -3.2177,1.2098 -0.883,0.3486 -2.3279,0.94149 -3.2109,1.3188 -0.883,0.37727 -2.7924,1.2649 -4.243,1.9713 -1.4506,0.7064 -3.4425,1.7304 -4.4265,2.2751 -0.98392,0.54471 -2.4552,1.3887 -3.2682,1.8761 -0.81419,0.48621 -2.1904,1.3394 -3.0595,1.8956 -0.86924,0.55502 -2.3657,1.5607 -3.3256,2.2349 -0.95982,0.67429 -2.4414,1.7557 -3.2934,2.4036 -0.85088,0.64907 -2.219,1.727 -3.0389,2.3966 -0.81993,0.66969 -2.3418,1.9758 -3.3829,2.9013 -1.0401,0.92542 -2.9758,2.7683 -4.3003,4.0938 -1.3245,1.3257 -3.1146,3.2097 -3.9769,4.1869 -0.86351,0.97703 -2.1192,2.4472 -2.7912,3.267 -0.67201,0.81993 -1.8818,2.368 -2.6881,3.4402 -0.8073,1.0722 -2.164,2.9816 -3.016,4.243 -0.85204,1.2614 -2.165,3.3256 -2.9184,4.587 -0.75228,1.2614 -1.821,3.1342 -2.3737,4.1615 -0.55389,1.0286 -1.4323,2.7567 -1.9529,3.8416 -0.52062,1.086 -1.3635,2.9541 -1.8749,4.1524 -0.5103,1.1984 -1.1697,2.8234 -1.4656,3.6123 -0.29586,0.78781 -0.86924,2.414 -1.274,3.6123 -0.40365,1.1984 -0.9346,2.8749 -1.1789,3.7269 -0.24426,0.85088 -0.60204,2.1409 -0.7947,2.8669 -0.19266,0.72474 -0.55502,2.2477 -0.80617,3.3829 -0.25113,1.1353 -0.63874,3.1214 -0.86122,4.415 -0.22132,1.2924 -0.51259,3.2247 -0.64791,4.2935 -0.13417,1.0676 -0.32911,2.9518 -0.43232,4.1856 l -0.18922,2.243 -7.7979,-0.001 c -5.767,0 -8.112,-0.0402 -9.002,-0.15139 -0.66167,-0.0837 -1.6433,-0.22706 -2.1788,-0.31993 -0.53553,-0.0918 -1.3921,-0.26835 -1.9024,-0.39105 -0.5103,-0.12272 -1.4392,-0.38072 -2.0642,-0.57338 -0.62498,-0.19263 -1.7293,-0.58597 -2.4552,-0.87611 -0.72474,-0.28897 -1.7717,-0.75227 -2.3257,-1.0298 -0.55389,-0.27751 -1.5768,-0.84286 -2.2739,-1.2568 -0.69723,-0.41396 -1.8692,-1.2075 -2.6054,-1.7637 -0.73621,-0.55618 -1.8554,-1.4713 -2.4884,-2.0355 -0.63186,-0.56307 -1.6077,-1.5355 -2.1685,-2.1617 -0.55962,-0.62498 -1.4506,-1.7156 -1.9793,-2.4243 -0.52866,-0.7087 -1.2993,-1.844 -1.7132,-2.5228 -0.41283,-0.67887 -0.97703,-1.6834 -1.2545,-2.2316 -0.27637,-0.54815 -0.69149,-1.4518 -0.92198,-2.0068 -0.2305,-0.55617 -0.61122,-1.5779 -0.84515,-2.2729 -0.23393,-0.69491 -0.586,-1.9334 -0.78208,-2.7522 -0.1961,-0.81877 -0.44034,-2.0573 -0.54241,-2.751 -0.10321,-0.69378 -0.22133,-2.0103 -0.26491,-2.9242 -0.0424,-0.91511 -0.0424,-2.3599 10e-4,-3.2109 0.0459,-0.89791 0.20298,-2.1627 0.37499,-3.0115 0.16283,-0.80386 0.48048,-2.0171 0.70525,-2.6949 0.22477,-0.67772 0.73392,-1.9024 1.133,-2.7223 0.39908,-0.81993 1.0309,-1.9552 1.4059,-2.5228 0.37498,-0.56764 0.99422,-1.4197 1.3761,-1.8921 0.38187,-0.47361 1.2293,-1.3773 1.883,-2.0103 0.65364,-0.633 1.4977,-1.3864 1.8761,-1.6754 0.37842,-0.28897 1.1376,-0.81877 1.6869,-1.1766 0.55044,-0.35778 1.6341,-0.95638 2.4082,-1.3302 0.77521,-0.37385 1.9678,-0.86464 2.6491,-1.0917 0.68232,-0.22706 1.844,-0.53669 2.5802,-0.68805 0.73737,-0.15024 2.0114,-0.33372 2.8314,-0.40594 0.83255,-0.0745 1.946,-0.0975 2.5228,-0.0539 0.56764,0.0436 1.3933,0.15366 1.8348,0.24426 0.4415,0.0906 1.1376,0.27294 1.5481,0.40481 0.41054,0.13188 1.2098,0.47132 1.7775,0.75341 0.56764,0.28325 1.3669,0.75228 1.7775,1.0435 0.41054,0.29127 1.1617,0.94378 1.6697,1.4518 0.50801,0.50686 1.1995,1.3302 1.5355,1.8291 0.336,0.5 0.83483,1.3796 1.1078,1.9564 0.27407,0.57682 0.62956,1.5447 0.79011,2.1502 0.1617,0.60663 0.33255,1.6227 0.37958,2.2591 0.047,0.63529 0.047,1.6593 10e-4,2.2741 -0.0459,0.61467 -0.21331,1.6226 -0.37041,2.2397 -0.1571,0.6158 -0.51604,1.6089 -0.79928,2.2052 -0.28211,0.59631 -0.78781,1.4816 -1.1238,1.9678 -0.33601,0.48623 -0.9713,1.2522 -1.4128,1.7029 -0.44149,0.45068 -1.1536,1.0814 -1.5825,1.4036 -0.42888,0.32109 -1.2305,0.81648 -1.7809,1.1009 -0.55044,0.28437 -1.4082,0.65364 -1.9048,0.81992 -0.49768,0.16748 -1.2706,0.37383 -1.719,0.45984 -0.44723,0.0848 -1.3554,0.1881 -2.016,0.22706 -0.66167,0.039 -1.4587,0.12849 -1.7717,0.19614 -0.3142,0.0689 -0.77863,0.21902 -1.0321,0.33369 -0.25458,0.11591 -0.61809,0.31307 -0.80731,0.43921 -0.18921,0.12726 -0.61924,0.50342 -0.95524,0.83484 -0.38072,0.37614 -0.75915,0.91051 -1.0022,1.4162 -0.23051,0.48048 -0.44379,1.1582 -0.52178,1.6628 -0.10205,0.65365 -0.0998,1.0424 0.008,1.6766 0.0768,0.45412 0.30847,1.1766 0.51604,1.6054 0.20757,0.42887 0.58942,1.0194 0.85088,1.313 0.26031,0.29357 0.74423,0.71214 1.0757,0.93002 0.3314,0.21788 0.90708,0.50915 1.2786,0.64676 0.3727,0.13757 1.0688,0.2798 1.5481,0.31651 0.47935,0.0367 1.5424,0.006 2.3624,-0.0677 0.81993,-0.0734 2.1363,-0.26489 2.9242,-0.4243 0.78897,-0.16046 2.0527,-0.49655 2.8095,-0.74767 0.75686,-0.25 2.0986,-0.80846 2.9816,-1.2396 0.883,-0.43232 2.1479,-1.1456 2.8095,-1.5871 0.66283,-0.4415 1.7006,-1.2178 2.3073,-1.727 0.60778,-0.50799 1.5298,-1.3784 2.0492,-1.9323 0.51948,-0.55386 1.3314,-1.524 1.8038,-2.1547 0.47246,-0.63072 1.1422,-1.6284 1.4896,-2.2168 0.34747,-0.58829 0.86351,-1.5688 1.149,-2.1776 0.2844,-0.60893 0.74081,-1.7786 1.0137,-2.5996 0.27406,-0.82108 0.62842,-2.1376 0.78668,-2.9277 0.15939,-0.78897 0.34631,-2.1949 0.41511,-3.1249 0.0906,-1.2224 0.0906,-2.1559 0,-3.3784 -0.0688,-0.93002 -0.25572,-2.336 -0.41511,-3.1249 -0.15832,-0.79017 -0.51266,-2.1066 -0.78672,-2.9277 -0.27294,-0.82108 -0.72935,-1.9908 -1.0137,-2.5998 -0.28554,-0.60894 -0.80962,-1.602 -1.1651,-2.2063 -0.35549,-0.60433 -1.0424,-1.6284 -1.5275,-2.2739 -0.48392,-0.64676 -1.5011,-1.797 -2.2603,-2.5573 -0.75914,-0.75914 -1.7947,-1.6949 -2.3003,-2.078 -0.50572,-0.38301 -1.3314,-0.96556 -1.8348,-1.2958 -0.53006,-0.33412 -1.6644,-0.95906 -2.5472,-1.3901 -0.88275,-0.43313 -2.2254,-0.99206 -2.9824,-1.2396 -0.75694,-0.24957 -2.0295,-0.58782 -2.8298,-0.75282 -0.80043,-0.16399 -2.2545,-0.35893 -3.2305,-0.43347 -1.3658,-0.10436 -2.2339,-0.10436 -3.7624,0 -1.0928,0.0745 -2.6318,0.24082 -3.4206,0.3704 -0.78781,0.12843 -2.2201,0.43806 -3.181,0.6869 -0.96211,0.24999 -2.3807,0.69034 -3.1536,0.98047 -0.7729,0.28898 -2.2316,0.93345 -3.2408,1.4312 -1.0091,0.49768 -2.3657,1.2385 -3.0148,1.6479 -0.64907,0.40939 -1.758,1.1812 -2.4655,1.7167 -0.70641,0.53553 -1.8016,1.4403 -2.4323,2.0114 -0.63071,0.57109 -1.6272,1.5676 -2.2155,2.2155 -0.58828,0.64676 -1.4977,1.7442 -2.0217,2.4381 -0.52522,0.69379 -1.2683,1.7614 -1.6536,2.3737 -0.38532,0.61123 -0.95638,1.5917 -1.2694,2.1788 -0.31307,0.586 -0.80501,1.5986 -1.0929,2.2477 -0.28784,0.6502 -0.73163,1.7855 -0.9862,2.5228 -0.25457,0.7385 -0.61351,1.9093 -0.79928,2.6031 -0.18464,0.69379 -0.46328,2.0091 -0.61696,2.9242 -0.15481,0.91395 -0.34058,2.5138 -0.41398,3.5549 -0.0745,1.063 -0.10092,2.595 -0.0585,3.4976 0.0401,0.883 0.12385,2.1466 0.18463,2.8095 0.0608,0.66167 0.24082,1.9884 0.40021,2.9483 0.15825,0.95867 0.46559,2.4632 0.68116,3.3427 0.21559,0.8784 0.58026,2.1834 0.81075,2.9001 0.22935,0.71557 0.67658,1.946 0.99309,2.7351 0.31651,0.78781 0.92658,2.1559 1.3566,3.0389 0.43003,0.883 1.1387,2.204 1.5745,2.9358 0.43577,0.73276 1.1582,1.868 1.6043,2.5228 0.44723,0.65593 1.3681,1.8887 2.0481,2.7406 0.68003,0.85088 2.0906,2.4024 3.1329,3.447 1.0435,1.0458 2.594,2.4552 3.4448,3.1329 0.85204,0.67887 2.0848,1.5986 2.7406,2.0458 0.6548,0.4461 1.7901,1.1686 2.5228,1.6043 0.73163,0.4369 2.0527,1.1479 2.9358,1.5814 0.883,0.43347 2.251,1.0435 3.0389,1.3566 0.78896,0.31307 2.0274,0.75914 2.7522,0.99307 0.72589,0.2328 2.0114,0.59976 2.8566,0.81306 0.8463,0.21328 2.3176,0.51717 3.2682,0.67429 0.9518,0.1582 2.2213,0.34516 2.8198,0.41626 0.6674,0.0792 4.3335,0.15015 9.4687,0.18356 l 8.3793,0.0551 0.14219,1.9678 c 0.078,1.0825 0.26833,3.0263 0.42314,4.3197 0.15481,1.2935 0.43921,3.305 0.63187,4.4723 0.19265,1.1662 0.50457,2.8704 0.69262,3.7843 0.18806,0.91395 0.59516,2.6961 0.90478,3.9598 0.30962,1.2626 0.87038,3.3268 1.2477,4.587 0.37727,1.2591 0.95296,3.064 1.2798,4.0101 0.32682,0.94607 0.87382,2.4426 1.2167,3.3256 0.34287,0.88299 1.0172,2.5319 1.4988,3.6638 0.48163,1.1318 1.5321,3.3761 2.336,4.9884 0.80272,1.6112 1.9529,3.7911 2.5538,4.8428 0.60089,1.0527 1.4908,2.5492 1.9759,3.3256 0.48508,0.7775 1.4506,2.258 2.1456,3.2924 0.69378,1.0332 1.9449,2.7877 2.7796,3.899 0.83484,1.1101 2.0676,2.6903 2.7406,3.5102 0.67314,0.81992 1.9632,2.3164 2.8681,3.3256 0.90593,1.0091 2.8244,2.9987 4.2659,4.4208 1.4403,1.4231 3.3165,3.1971 4.1673,3.9437 0.85204,0.7477 2.4746,2.0996 3.6065,3.0044 1.133,0.90594 2.719,2.1238 3.5262,2.7074 l 1.4667,1.0607 10e-4,12.401 c 0,7.8816 0.0447,12.835 0.12156,13.589 0.0665,0.65364 0.22591,1.6777 0.35434,2.2774 0.12958,0.5986 0.38989,1.5791 0.57911,2.1788 0.19037,0.5986 0.61466,1.6571 0.94491,2.3508 0.32911,0.69379 0.82108,1.6226 1.0929,2.0642 0.27177,0.4415 0.78323,1.1869 1.1364,1.6571 0.35321,0.47016 1.0722,1.3061 1.5986,1.8589 l 0.95524,1.0045 -0.26604,0.0551 c -0.14679,0.0299 -1.9437,0.21444 -3.994,0.41055 -2.0492,0.19614 -5.61,0.56304 -7.9126,0.81419 -2.3015,0.25113 -5.2693,0.58484 -6.5938,0.74194 -1.3245,0.15716 -3.8532,0.46672 -5.6191,0.68805 -1.766,0.22133 -4.5526,0.58255 -6.1924,0.80273 -1.6399,0.22132 -4.5812,0.63415 -6.5365,0.91855 -1.9552,0.28438 -4.5387,0.66854 -5.7406,0.85433 -1.2029,0.18583 -2.3944,0.41167 -2.6491,0.50113 -0.25457,0.0895 -0.68805,0.2775 -0.96211,0.41856 -0.27522,0.13984 -0.80502,0.54471 -1.1766,0.9002 -0.37154,0.35434 -0.79928,0.85546 -0.95065,1.1124 -0.15023,0.25686 -0.37727,0.76603 -0.50228,1.1307 -0.12498,0.36467 -0.25917,0.97934 -0.297,1.3669 -0.0447,0.45066 -0.007,0.99996 0.10437,1.5263 0.0952,0.45183 0.3188,1.1181 0.49654,1.4805 0.17775,0.36122 0.55502,0.91624 0.83829,1.2328 0.28439,0.31536 0.79241,0.74997 1.1284,0.96556 0.33714,0.21559 0.90135,0.49081 1.2545,0.61236 0.35433,0.12148 0.98276,0.25115 1.3967,0.28668 0.56649,0.0493 1.4885,-0.048 3.7338,-0.39676 1.6398,-0.25573 4.4265,-0.67085 6.1924,-0.92313 1.766,-0.25229 4.3725,-0.61467 5.7911,-0.80502 1.4197,-0.18913 3.9998,-0.52521 5.7338,-0.74425 1.735,-0.22017 4.9597,-0.60778 7.1672,-0.86351 2.2075,-0.25457 5.4586,-0.6158 7.2245,-0.80272 1.766,-0.18583 4.8106,-0.49424 6.7658,-0.68461 1.9552,-0.19037 5.3095,-0.49997 7.4539,-0.68805 2.1444,-0.1881 5.5766,-0.47361 7.6259,-0.633 2.0504,-0.15943 4.3979,-0.34173 5.2177,-0.40481 0.81992,-0.0641 3.0389,-0.21788 4.931,-0.34287 1.8921,-0.12498 4.2923,-0.27982 5.3324,-0.34402 1.0412,-0.0641 2.7957,-0.16748 3.899,-0.22935 1.1043,-0.0619 2.9873,-0.16521 4.1856,-0.22822 1.1984,-0.0641 3.2625,-0.1685 4.587,-0.23164 1.3245,-0.0641 4.2659,-0.19263 6.5365,-0.28553 2.2706,-0.0928 5.728,-0.22248 7.6832,-0.28669 1.9552,-0.0654 5.5421,-0.16974 7.9699,-0.23279 2.4288,-0.0631 8.6728,-0.17078 13.876,-0.23966 5.2039,-0.0676 12.996,-0.0918 17.316,-0.0528 4.3209,0.039 10.435,0.12148 13.589,0.18232 3.1536,0.0608 7.5147,0.16294 9.69,0.22822 2.1766,0.0641 5.9953,0.19387 8.486,0.28669 2.4919,0.0928 6.2073,0.24768 8.2566,0.34287 2.0504,0.0953 5.1719,0.25115 6.9378,0.34631 1.766,0.0951 5.275,0.3016 7.7979,0.4587 2.5228,0.15592 6.3931,0.41398 8.6006,0.57337 2.2075,0.15944 5.8977,0.44266 8.1993,0.63072 2.3016,0.18686 5.6306,0.47132 7.3965,0.63071 1.766,0.15943 5.017,0.47017 7.2245,0.6892 2.2075,0.22018 5.8977,0.60663 8.1993,0.86007 2.3026,0.25457 5.8886,0.6674 7.9699,0.91855 2.0813,0.25229 5.7131,0.71557 8.072,1.0309 2.3576,0.31536 6.0217,0.82795 8.1419,1.1387 2.1192,0.31191 4.8151,0.70869 5.9907,0.883 l 2.1363,0.31764 0.83481,-0.14334 c 0.4587,-0.0792 1.1743,-0.30505 1.5906,-0.50342 0.48737,-0.23279 1.0103,-0.61466 1.4736,-1.0768 0.49539,-0.49539 0.84055,-0.97702 1.1158,-1.5584 0.23739,-0.49999 0.45296,-1.1892 0.53095,-1.7018 0.1124,-0.7213 0.10312,-1.0103 -0.0516,-1.7706 -0.10209,-0.49999 -0.32222,-1.1869 -0.4885,-1.5275 -0.16624,-0.34174 -0.61238,-0.95067 -0.9908,-1.3555 -0.48966,-0.52292 -0.92543,-0.85204 -1.5068,-1.1387 -0.44953,-0.22133 -1.2041,-0.4759 -1.6777,-0.56536 -0.47246,-0.0895 -2.9758,-0.47361 -5.5617,-0.85432 -2.586,-0.38072 -6.4298,-0.92543 -8.5433,-1.2098 -2.1124,-0.28553 -5.9573,-0.77521 -8.5433,-1.0894 -2.586,-0.31306 -6.3529,-0.75112 -8.3713,-0.97245 -2.0183,-0.22132 -5.1913,-0.55846 -7.0525,-0.74883 -1.86,-0.19037 -5.6271,-0.55044 -8.3713,-0.80041 -2.7431,-0.24886 -5.7109,-0.50802 -6.5938,-0.57569 -0.883,-0.0664 -1.7775,-0.15015 -1.9885,-0.18459 l -0.38187,-0.0631 1.016,-1.0539 c 0.55962,-0.58024 1.3084,-1.4208 1.6651,-1.8692 0.35662,-0.44837 0.98276,-1.3256 1.391,-1.9495 0.40825,-0.62382 0.99882,-1.6502 1.3142,-2.2809 0.3142,-0.63071 0.70067,-1.4564 0.85777,-1.8348 0.1582,-0.37842 0.44724,-1.1789 0.64332,-1.7775 0.19614,-0.59975 0.4633,-1.5802 0.59402,-2.1788 0.13076,-0.59976 0.31078,-1.6812 0.40136,-2.4036 0.1285,-1.0252 0.16397,-3.0608 0.16397,-9.252 v -7.9367 l 1.0607,-0.6032 c 0.58369,-0.33256 1.7832,-1.0412 2.6662,-1.5756 0.883,-0.5344 2.586,-1.6284 3.7843,-2.4323 1.1984,-0.80273 2.9277,-2.016 3.8416,-2.6949 0.91511,-0.67888 2.3084,-1.7545 3.0962,-2.3898 0.78897,-0.63529 2.0275,-1.6639 2.7522,-2.2855 0.7259,-0.62269 2.2556,-2.0091 3.4013,-3.0801 1.1444,-1.0722 2.9574,-2.8865 4.0297,-4.0307 1.0711,-1.1456 2.4826,-2.7029 3.1375,-3.4621 0.65478,-0.75799 1.6066,-1.8933 2.1157,-2.5228 0.50799,-0.62843 1.5584,-1.9873 2.3337,-3.0183 0.77519,-1.0321 2.1398,-2.9667 3.0331,-4.3003 0.89331,-1.3337 2.0401,-3.1226 2.548,-3.9734 0.50915,-0.85204 1.3153,-2.2488 1.7935,-3.1065 0.47819,-0.85664 1.3933,-2.6031 2.032,-3.8818 0.63989,-1.2775 1.5,-3.0791 1.9105,-4.0033 0.41054,-0.92429 1.1318,-2.6604 1.6032,-3.8587 0.47017,-1.1984 0.90134,-2.289 0.95638,-2.423 l 0.10086,-0.24426 4.2797,-0.0586 c 3.5366,-0.0493 4.5445,-0.10085 5.7956,-0.29471 0.83369,-0.12952 2.1386,-0.39334 2.899,-0.58715 0.76146,-0.19264 1.9633,-0.56304 2.6707,-0.82222 0.70754,-0.25915 1.8543,-0.74309 2.548,-1.0768 0.69378,-0.33371 1.8176,-0.94493 2.4977,-1.3589 0.68117,-0.41398 1.7144,-1.1123 2.298,-1.5527 0.58371,-0.44034 1.5,-1.2041 2.0366,-1.696 0.53782,-0.49195 1.3807,-1.3337 1.8738,-1.8692 0.49426,-0.53669 1.1926,-1.3624 1.5516,-1.8348 0.36007,-0.47362 0.91969,-1.2557 1.2442,-1.7385 0.32453,-0.48392 0.87268,-1.3979 1.219,-2.0309 0.34516,-0.633 0.86464,-1.6926 1.1525,-2.3543 0.28782,-0.66167 0.69837,-1.735 0.91051,-2.3853 0.21331,-0.64907 0.52522,-1.8004 0.69494,-2.5573 0.16975,-0.75685 0.39448,-1.9701 0.49997,-2.6949 0.17098,-1.1823 0.19037,-3.0447 0.19037,-18.004 v -16.685 l -0.20419,-0.80272 c -0.11116,-0.4415 -0.33829,-1.1594 -0.50341,-1.594 -0.16521,-0.43577 -0.60204,-1.2431 -0.97129,-1.7947 -0.36927,-0.55159 -1.0516,-1.3566 -1.5172,-1.7889 -0.46443,-0.43232 -1.1318,-0.95753 -1.4828,-1.1674 -0.35091,-0.20986 -1.0412,-0.55502 -1.5344,-0.76604 -0.4931,-0.21215 -1.2947,-0.46556 -1.7809,-0.56419 -0.77061,-0.15717 -2.508,-0.18006 -13.62,-0.18006 h -12.736 l -0.1089,-0.25802 c -0.0596,-0.1421 -0.44839,-1.1353 -0.86466,-2.2075 -0.41512,-1.0722 -1.1754,-2.9048 -1.688,-4.071 -0.5126,-1.1674 -1.508,-3.2567 -2.212,-4.6443 -0.70297,-1.3876 -1.7798,-3.3932 -2.3898,-4.4562 -0.61122,-1.063 -1.5022,-2.5596 -1.9816,-3.3256 -0.47933,-0.76604 -1.4644,-2.2694 -2.1914,-3.3417 -0.72589,-1.0722 -1.7591,-2.5435 -2.2958,-3.2682 -0.53668,-0.7259 -1.6594,-2.1708 -2.4942,-3.2109 -0.8337,-1.0413 -1.9999,-2.4414 -2.5905,-3.1123 -0.59171,-0.67085 -1.4231,-1.6054 -1.8486,-2.0767 -0.42546,-0.47132 -0.77406,-0.88873 -0.77406,-0.92771 0,-0.0378 0.37958,-0.62613 0.84402,-1.305 0.46443,-0.68002 1.2167,-1.8692 1.6719,-2.6421 0.45528,-0.77406 1.1777,-2.1411 1.6054,-3.0389 0.42774,-0.89791 1.0401,-2.3038 1.3601,-3.1236 0.3188,-0.81993 0.76832,-2.1099 0.99767,-2.8669 0.2305,-0.75685 0.56535,-1.9953 0.74654,-2.7522 0.18109,-0.75685 0.41396,-1.8669 0.51717,-2.4655 0.10313,-0.59975 0.27064,-1.657 0.3727,-2.3508 0.16396,-1.1181 0.18913,-3.6857 0.22361,-22.636 l 0.039,-21.376 -0.18583,-0.64218 c -0.10209,-0.3532 -0.34171,-0.93689 -0.53324,-1.297 -0.19037,-0.36007 -0.64791,-0.94262 -1.016,-1.2935 -0.42317,-0.40365 -0.99883,-0.7947 -1.5642,-1.063 l -0.89331,-0.4243 -1.1651,-0.0436 -1.1651,-0.0436 -1.4724,0.42888 c -0.80959,0.23624 -2.8656,0.89217 -4.5686,1.4587 -1.7029,0.56649 -4.3084,1.4667 -5.7911,2.0011 -1.4816,0.53324 -4.2945,1.6077 -6.2498,2.3876 -1.9552,0.77979 -4.634,1.8898 -5.9528,2.4668 -1.3188,0.57795 -3.5871,1.6135 -5.0422,2.3015 -1.4541,0.68921 -3.7762,1.852 -5.1591,2.5847 -1.3841,0.73276 -3.321,1.797 -4.3048,2.3657 -0.98276,0.56764 -2.665,1.5882 -3.7372,2.2683 -1.0722,0.68003 -2.7132,1.7832 -3.6477,2.4507 -0.93345,0.66855 -2.1891,1.6054 -2.7889,2.0837 -0.59976,0.47706 -1.6158,1.3233 -2.258,1.8795 -0.64218,0.55618 -1.8486,1.7006 -2.681,2.5424 -0.83368,0.84286 -1.8577,1.9449 -2.2764,2.4494 -0.41972,0.50457 -1.1124,1.4071 -1.5401,2.0068 -0.42774,0.59859 -1.0596,1.5791 -1.4036,2.1788 -0.34402,0.5986 -0.83254,1.5538 -1.0871,2.1215 -0.25344,0.56764 -0.52406,1.2259 -0.60089,1.4621 l -0.13984,0.43004 h -2.1238 c -1.6559,0 -2.1124,-0.0321 -2.0654,-0.14335 0.0322,-0.0791 0.39332,-0.9174 0.80157,-1.8635 0.40825,-0.94607 1.0091,-2.4942 1.336,-3.4402 0.32683,-0.94607 0.797,-2.4368 1.0458,-3.314 0.2477,-0.87611 0.63071,-2.4758 0.84975,-3.5549 0.22017,-1.0779 0.50112,-2.7613 0.62498,-3.7385 0.12375,-0.97819 0.28553,-2.758 0.35893,-3.9563 0.0792,-1.2844 0.10313,-3.0263 0.0584,-4.243 -0.0425,-1.1353 -0.15242,-2.813 -0.24655,-3.7269 -0.0928,-0.91512 -0.27522,-2.3337 -0.40365,-3.1536 -0.1285,-0.81992 -0.3899,-2.1869 -0.58027,-3.0389 -0.18913,-0.85204 -0.51832,-2.1673 -0.73047,-2.9242 -0.21215,-0.75685 -0.62269,-2.0687 -0.91396,-2.9151 -0.29013,-0.84631 -0.76374,-2.1112 -1.0504,-2.8095 -0.28669,-0.69836 -0.86808,-1.9931 -1.2924,-2.876 -0.42314,-0.883 -1.1215,-2.2246 -1.5516,-2.9816 -0.43003,-0.75686 -1.1341,-1.93 -1.5653,-2.6066 -0.43117,-0.67658 -1.2431,-1.8635 -1.8061,-2.6375 -0.56305,-0.77406 -1.5814,-2.078 -2.2636,-2.8978 -0.68231,-0.81992 -2.0951,-2.3451 -3.1375,-3.3897 -1.0435,-1.0447 -2.5412,-2.4346 -3.3301,-3.0894 -0.78782,-0.65481 -2.0011,-1.6123 -2.6949,-2.1283 -0.69378,-0.51604 -1.8554,-1.3245 -2.5802,-1.7958 -0.72475,-0.47132 -1.86,-1.1685 -2.5228,-1.5481 -0.66168,-0.38072 -1.8864,-1.0332 -2.7213,-1.4506 -0.83484,-0.41856 -2.2533,-1.0756 -3.1536,-1.461 -0.9002,-0.38532 -2.6169,-1.0252 -3.8152,-1.4208 -1.1984,-0.39679 -2.9265,-0.90478 -3.8416,-1.1307 -0.91396,-0.2259 -2.3589,-0.53668 -3.2109,-0.69149 -0.85089,-0.15481 -2.1926,-0.36123 -2.9816,-0.4587 -0.78782,-0.0975 -2.1273,-0.23051 -2.9758,-0.29587 -0.84859,-0.0654 -2.6284,-0.11123 -3.9563,-0.10205 z m 1.0264,11.403 c 1.3876,0.0229 3.1684,0.11926 3.9563,0.21331 0.78897,0.0952 2.0275,0.27979 2.7522,0.41167 0.72591,0.13072 1.938,0.39334 2.6949,0.58484 0.75686,0.19037 2.008,0.55044 2.7796,0.80157 0.77177,0.25113 2.0309,0.71443 2.797,1.0286 0.76603,0.31536 2.0951,0.92543 2.9539,1.3555 0.85893,0.43003 2.0447,1.0768 2.6363,1.4357 0.59171,0.35893 1.469,0.91624 1.9495,1.2385 0.48048,0.32337 1.2866,0.89675 1.7912,1.2752 0.50457,0.37958 1.227,0.94951 1.6054,1.2683 0.37843,0.31765 1.2178,1.0642 1.8646,1.657 0.64791,0.59403 1.7029,1.6674 2.344,2.3876 0.64218,0.72017 1.5779,1.8348 2.079,2.4793 0.50112,0.64333 1.2568,1.6857 1.68,2.3164 0.422,0.63071 1.0642,1.6525 1.4277,2.2706 0.36236,0.61924 1.0366,1.9093 1.4976,2.8669 0.46101,0.95869 1.0298,2.2327 1.2649,2.8324 0.23395,0.5986 0.62614,1.7041 0.87153,2.4564 0.24542,0.75228 0.60091,1.9988 0.79126,2.7706 0.18913,0.77061 0.46903,2.1421 0.62154,3.0469 0.15241,0.90477 0.3406,2.2648 0.41856,3.0218 0.078,0.75685 0.1388,2.5882 0.1353,4.071 -0.004,1.7064 -0.0745,3.2831 -0.19161,4.3003 -0.10209,0.883 -0.29242,2.1994 -0.4243,2.9242 -0.13076,0.72475 -0.41856,2.0366 -0.63873,2.9139 -0.22017,0.87727 -0.66054,2.3473 -0.97818,3.2682 -0.31765,0.91969 -0.883,2.3692 -1.2545,3.2212 -0.37269,0.85204 -1.0435,2.219 -1.4908,3.0389 -0.44839,0.81993 -1.297,2.2224 -1.8876,3.1168 -0.58942,0.89331 -1.5997,2.2867 -2.2452,3.0962 -0.64447,0.80845 -1.8967,2.211 -2.7831,3.1158 -0.88644,0.90594 -2.2729,2.196 -3.0814,2.8669 -0.80846,0.672 -2.047,1.6261 -2.7522,2.1215 -0.70525,0.49539 -1.9265,1.2855 -2.7155,1.7557 -0.78781,0.47017 -2.1044,1.1823 -2.9242,1.5814 -0.81993,0.40021 -2.2143,1.0126 -3.0985,1.3612 -0.88299,0.34976 -2.3026,0.84515 -3.1536,1.102 -0.84975,0.25687 -2.2419,0.61925 -3.094,0.80388 -0.85088,0.18577 -2.0893,0.41628 -2.7522,0.5126 -0.66167,0.0963 -1.7717,0.22819 -2.4655,0.29357 -0.69378,0.0642 -2.3702,0.11812 -3.7269,0.11812 -1.3554,0 -3.0331,-0.0539 -3.7269,-0.11812 -0.69379,-0.0654 -1.8027,-0.19723 -2.4655,-0.29357 -0.66167,-0.0952 -1.9002,-0.32798 -2.7522,-0.51489 -0.85088,-0.18806 -2.2442,-0.54928 -3.0962,-0.80272 -0.85088,-0.25344 -2.2706,-0.74768 -3.1536,-1.0963 -0.883,-0.34976 -2.3647,-1.0126 -3.2934,-1.4736 -0.92887,-0.46214 -2.2958,-1.2087 -3.0389,-1.6593 -0.7431,-0.45068 -1.8715,-1.1903 -2.5068,-1.6444 -0.63645,-0.45412 -1.6685,-1.2339 -2.2935,-1.7328 -0.62614,-0.49883 -2.0435,-1.8142 -3.1501,-2.9242 -1.1066,-1.1089 -2.4668,-2.5847 -3.0205,-3.2786 -0.55502,-0.69378 -1.5424,-2.0619 -2.1937,-3.0389 -0.65249,-0.97818 -1.524,-2.3966 -1.9392,-3.1536 -0.41398,-0.75686 -1.0906,-2.1411 -1.5034,-3.0744 -0.41167,-0.9346 -0.99767,-2.4311 -1.3027,-3.3256 -0.30505,-0.89562 -0.7431,-2.3589 -0.97358,-3.2534 -0.22935,-0.89446 -0.54242,-2.3646 -0.69379,-3.2682 -0.15252,-0.90365 -0.33027,-2.2362 -0.39563,-2.9609 -0.0665,-0.72474 -0.15136,-1.9896 -0.19037,-2.8095 -0.0378,-0.81992 -0.0138,-2.375 0.0528,-3.4563 0.0677,-1.0814 0.20184,-2.5515 0.29931,-3.2682 0.0975,-0.71672 0.30963,-1.9736 0.47133,-2.7934 0.16283,-0.81993 0.51603,-2.2648 0.78781,-3.2109 0.27064,-0.94607 0.76603,-2.4426 1.0997,-3.3256 0.33485,-0.88299 1.086,-2.5596 1.6708,-3.7269 0.58485,-1.1674 1.414,-2.6753 1.8417,-3.353 0.42775,-0.67774 1.0974,-1.6846 1.4896,-2.2362 0.39219,-0.55273 0.99997,-1.3658 1.352,-1.8073 0.35205,-0.4415 1.141,-1.3646 1.7534,-2.0515 0.61235,-0.68689 1.7086,-1.7958 2.4368,-2.4655 0.72819,-0.66856 1.813,-1.6112 2.4127,-2.0928 0.5986,-0.48163 1.7316,-1.313 2.5183,-1.8463 0.78553,-0.5344 1.9197,-1.258 2.5194,-1.6089 0.59975,-0.35091 1.7087,-0.94607 2.4655,-1.3233 0.7557,-0.37727 1.868,-0.89447 2.47,-1.149 0.60204,-0.25457 1.7866,-0.70067 2.6318,-0.98965 0.84515,-0.29013 2.3647,-0.73047 3.3771,-0.98047 1.0126,-0.24884 2.4597,-0.55388 3.2167,-0.67774 0.75686,-0.1227 1.9437,-0.2798 2.6375,-0.34747 0.69378,-0.0688 1.5194,-0.1445 1.8348,-0.16743 0.31535,-0.0241 1.7087,-0.0252 3.0962,-0.001 z m 107.13,40.078 c 0.11344,-0.007 0.14334,3.2557 0.14211,15.959 -10e-4,13.422 -0.0287,16.214 -0.17325,17.506 -0.094,0.84631 -0.29931,2.1698 -0.45526,2.9403 -0.15592,0.77062 -0.46788,2.0137 -0.69378,2.7613 -0.22592,0.74883 -0.64562,1.9552 -0.93231,2.68 -0.28669,0.72474 -0.86351,1.9896 -1.2832,2.8095 -0.41855,0.81993 -1.2614,2.2384 -1.8715,3.1536 -0.61122,0.91396 -1.5664,2.1949 -2.1215,2.844 -0.55616,0.65021 -1.2591,1.4759 -1.5607,1.8348 -0.30277,0.36008 -0.67545,0.9174 -0.82798,1.2396 -0.15242,0.32224 -0.32912,0.81304 -0.39332,1.0894 -0.0642,0.27751 -0.11695,0.86695 -0.11921,1.3107 -9.9e-4,0.44379 0.0769,1.1112 0.17326,1.4828 0.0976,0.37041 0.31535,0.93576 0.48508,1.2568 0.19944,0.37498 1.1433,1.4346 2.6662,2.9896 1.297,1.3245 2.7957,2.8978 3.3314,3.4976 0.53553,0.5986 1.2591,1.4243 1.6077,1.8348 0.3486,0.40939 1.0481,1.2614 1.555,1.8921 0.50572,0.63071 1.4495,1.8577 2.0963,2.7258 0.64563,0.86924 1.7534,2.4426 2.4597,3.4976 0.70754,1.055 1.7041,2.6146 2.2155,3.4667 0.5103,0.85088 1.3176,2.251 1.7935,3.11 0.47474,0.86006 1.2029,2.2397 1.6169,3.0665 0.41396,0.8268 1.1192,2.3119 1.5676,3.3004 0.44723,0.98851 1.1915,2.7567 1.6525,3.9299 0.46099,1.172 1.188,3.1581 1.6135,4.4127 0.54699,1.6089 0.91051,2.4826 1.2305,2.9632 0.25113,0.37498 0.71672,0.88757 1.0344,1.1399 0.3188,0.25115 0.82679,0.58255 1.1284,0.73621 0.30276,0.15242 0.87269,0.35435 1.2683,0.44723 0.61351,0.14458 2.7534,0.16974 14.566,0.17201 l 13.847,10e-4 -0.004,13.962 c -10e-4,7.6787 -0.0505,14.633 -0.10663,15.452 -0.0573,0.81993 -0.1881,1.9036 -0.29129,2.4082 -0.10312,0.50457 -0.34058,1.3818 -0.52864,1.9495 -0.18686,0.56765 -0.56879,1.5034 -0.84746,2.079 -0.27864,0.57567 -0.82795,1.5309 -1.2201,2.1215 -0.45297,0.68232 -1.2178,1.5791 -2.0974,2.4587 -0.92887,0.93002 -1.7626,1.6353 -2.5377,2.1491 -0.63644,0.4197 -1.6421,0.98963 -2.2362,1.266 -0.59518,0.27522 -1.4162,0.61122 -1.8268,0.74423 -0.40938,0.13303 -1.1834,0.34633 -1.7201,0.47361 -0.53553,0.12623 -1.6456,0.28555 -2.4655,0.3532 -0.9931,0.0815 -6.5652,0.10787 -16.685,0.0792 l -15.194,-0.0425 -0.85662,-0.19264 c -0.47133,-0.1056 -1.1938,-0.30158 -1.6054,-0.43577 -0.4117,-0.13303 -1.2178,-0.47245 -1.7912,-0.75341 -0.57338,-0.28095 -1.4839,-0.8417 -2.0229,-1.2465 -0.54011,-0.40594 -1.3256,-1.1089 -1.7465,-1.563 -0.41969,-0.4541 -1.0527,-1.2591 -1.4048,-1.7889 -0.35319,-0.5298 -0.83713,-1.4174 -1.0768,-1.9736 -0.23967,-0.55617 -0.54127,-1.4162 -0.67085,-1.9116 -0.1285,-0.49423 -0.28785,-1.5183 -0.35321,-2.2751 -0.0654,-0.75686 -0.1652,-1.6995 -0.22017,-2.0951 -0.0551,-0.39449 -0.25228,-1.0401 -0.43692,-1.4334 -0.18459,-0.39218 -0.58369,-0.98736 -0.88529,-1.321 -0.30159,-0.33371 -0.76716,-0.75801 -1.0366,-0.94264 -0.26835,-0.1846 -0.74999,-0.43919 -1.0722,-0.56649 -0.32109,-0.12622 -0.93002,-0.28553 -1.352,-0.3532 -0.54813,-0.087 -1.0022,-0.087 -1.5791,10e-4 -0.46215,0.0712 -1.172,0.29471 -1.6513,0.52062 -0.58255,0.27522 -1.0608,0.61695 -1.5584,1.1146 -0.46443,0.46559 -0.84057,0.98047 -1.0676,1.4633 -0.19264,0.40938 -0.40823,1.0183 -0.47703,1.3532 -0.0699,0.33371 -0.12726,0.98621 -0.12726,1.4495 0,0.4633 0.0538,1.3772 0.11921,2.0297 0.0654,0.65365 0.19615,1.6066 0.29012,2.118 0.094,0.5103 0.29702,1.399 0.45184,1.9747 0.15365,0.57451 0.46672,1.5492 0.69607,2.1662 0.22819,0.61695 0.68689,1.6628 1.0172,2.3257 0.3314,0.66283 0.82337,1.5653 1.0929,2.0068 0.27062,0.44149 0.85891,1.2924 1.3073,1.891 0.44953,0.59862 1.3279,1.6192 1.9518,2.2683 0.62498,0.64906 1.6054,1.5596 2.1788,2.024 0.57453,0.46443 1.4828,1.1353 2.0183,1.4919 0.53669,0.35549 1.6204,0.97474 2.4082,1.3749 0.78897,0.40023 1.9311,0.91396 2.5389,1.1399 0.60777,0.2259 1.6135,0.54355 2.2362,0.70525 0.62155,0.1617 1.75,0.40365 2.5068,0.53782 l 1.3761,0.24426 6.6132,0.0664 6.6144,0.0677 -0.5126,1.2041 c -0.28095,0.66282 -1.0023,2.2087 -1.602,3.4367 -0.60091,1.2282 -1.4323,2.8543 -1.8486,3.6123 -0.41625,0.75915 -1.2408,2.1926 -1.8325,3.1845 -0.59173,0.9931 -1.6651,2.6868 -2.3863,3.7624 -0.7213,1.0756 -1.8979,2.7406 -2.6134,3.6983 -0.71559,0.9587 -1.8084,2.3624 -2.4288,3.1191 -0.62154,0.75686 -1.649,1.969 -2.2832,2.6949 -0.63529,0.72474 -2.0584,2.2407 -3.1639,3.3668 -1.1055,1.1261 -2.7328,2.7052 -3.6158,3.5079 -0.88299,0.80388 -2.3015,2.0435 -3.1536,2.7534 -0.85088,0.71098 -2.4771,1.9884 -3.6123,2.8405 -1.1353,0.85089 -2.9413,2.1273 -4.0136,2.8359 -1.0722,0.70868 -2.594,1.6765 -3.3829,2.1512 -0.78781,0.47476 -2.414,1.3933 -3.6123,2.0412 -1.1984,0.64907 -2.4243,1.3314 -2.7235,1.5183 -0.30045,0.18583 -0.77521,0.594 -1.0562,0.90594 -0.28095,0.31304 -0.64447,0.84286 -0.80846,1.1788 -0.1652,0.336 -0.37269,0.88759 -0.46326,1.2259 -0.13531,0.5103 -0.16397,2.2741 -0.16851,10.249 -0.002,5.525 -0.0528,9.9996 -0.11591,10.493 -0.0619,0.47246 -0.21789,1.2729 -0.34747,1.7775 -0.12954,0.50457 -0.40823,1.3199 -0.61925,1.8107 -0.21215,0.49197 -0.66052,1.3337 -0.99767,1.8726 -0.33714,0.53784 -0.99078,1.3864 -1.4529,1.8864 -0.46214,0.49884 -1.2878,1.2442 -1.8348,1.6559 -0.54699,0.41168 -1.4587,0.97359 -2.0263,1.2488 -0.56764,0.27637 -1.3692,0.61122 -1.7809,0.74423 -0.41167,0.13427 -1.1341,0.33027 -1.6054,0.43692 l -0.85662,0.19264 -16.944,0.039 -16.943,0.039 0.0287,-7.6581 0.0299,-7.6581 1.5481,-0.0792 c 0.85204,-0.0435 2.4771,-0.16397 3.6123,-0.26606 1.1353,-0.10209 2.8646,-0.28898 3.8416,-0.41396 0.97817,-0.12499 2.8302,-0.40597 4.118,-0.62385 1.2866,-0.21901 2.6546,-0.47932 3.0389,-0.57911 0.38415,-0.0986 0.98047,-0.31764 1.3268,-0.48506 0.34515,-0.16747 0.95064,-0.6204 1.3451,-1.0068 0.51144,-0.49883 0.83367,-0.94493 1.1169,-1.5481 0.22018,-0.46672 0.45413,-1.203 0.52293,-1.641 0.0872,-0.5573 0.0895,-1.024 0.006,-1.5573 -0.0654,-0.41856 -0.19841,-0.98734 -0.29588,-1.2637 -0.0976,-0.27636 -0.33254,-0.74423 -0.52176,-1.0389 -0.18913,-0.29474 -0.61693,-0.79471 -0.95181,-1.1112 -0.33484,-0.31649 -0.86235,-0.70409 -1.172,-0.86119 -0.31075,-0.15717 -0.84399,-0.36812 -1.1869,-0.47017 -0.34287,-0.10086 -0.97245,-0.1846 -1.399,-0.1846 -0.42658,0 -1.3073,0.10086 -1.9575,0.22478 -0.64908,0.12375 -1.8004,0.32795 -2.5573,0.4541 -0.75685,0.12622 -2.2017,0.33255 -3.2109,0.45756 -1.0091,0.12623 -2.4288,0.28209 -3.1536,0.34861 -0.72474,0.0666 -2.2213,0.17325 -3.3256,0.23737 -1.2763,0.0745 -13.68,0.11591 -34.085,0.11364 -26.967,-0.004 -32.484,-0.0309 -34.631,-0.17201 -1.4048,-0.0928 -3.2637,-0.24771 -4.1318,-0.34402 -0.86809,-0.0963 -2.3131,-0.28096 -3.2109,-0.41055 -0.89791,-0.12952 -2.4587,-0.3876 -3.4677,-0.57224 -1.0091,-0.18583 -2.1698,-0.33598 -2.5802,-0.33598 -0.40939,0.001 -1.0034,0.0734 -1.3188,0.15943 -0.31535,0.0872 -0.75685,0.23853 -0.98162,0.33601 -0.22477,0.0976 -0.68805,0.38645 -1.0298,0.64331 -0.34058,0.25573 -0.7947,0.68463 -1.0068,0.95296 -0.2133,0.26833 -0.51259,0.73163 -0.66396,1.0309 -0.15252,0.29931 -0.35894,0.89217 -0.45985,1.3188 -0.1227,0.52408 -0.16055,1.0355 -0.11697,1.5779 0.0367,0.4415 0.17086,1.1078 0.29931,1.4816 0.12843,0.3727 0.39105,0.92314 0.58256,1.2213 0.1915,0.29816 0.59173,0.77061 0.88988,1.0493 0.297,0.27866 0.7729,0.63989 1.055,0.80159 0.28324,0.1617 0.7729,0.37612 1.0883,0.4759 0.31536,0.0998 1.4254,0.33598 2.4655,0.5252 1.0412,0.1881 2.6146,0.44609 3.4976,0.57224 0.883,0.12622 2.5344,0.33255 3.6696,0.4587 1.1353,0.12498 2.5802,0.25801 3.2109,0.29586 0.63071,0.0367 1.3142,0.0928 1.5194,0.12375 l 0.3727,0.0573 v 15.362 l -18.721,-0.0332 -18.721,-0.0322 -0.86235,-0.25228 c -0.47475,-0.13757 -1.1674,-0.38532 -1.5412,-0.55044 -0.37269,-0.16521 -0.96442,-0.48966 -1.3142,-0.72246 -0.35091,-0.23164 -0.98736,-0.75112 -1.414,-1.1536 -0.42658,-0.40249 -1.0034,-1.0733 -1.2809,-1.4908 -0.27638,-0.41741 -0.64103,-1.0688 -0.80846,-1.4472 -0.16744,-0.37842 -0.41628,-1.1009 -0.5516,-1.6054 l -0.24539,-0.9174 -0.0424,-13.016 c -0.0333,-9.9561 -0.009,-13.279 0.10092,-14.14 0.10665,-0.83941 0.11239,-1.3256 0.0196,-1.9208 -0.0677,-0.43806 -0.2798,-1.1318 -0.47245,-1.5424 -0.19151,-0.41052 -0.6204,-1.0332 -0.95296,-1.3853 -0.33256,-0.35091 -1.3291,-1.1319 -2.2133,-1.735 -0.88529,-0.60204 -2.383,-1.6742 -3.3291,-2.3818 -0.94607,-0.7087 -2.3647,-1.8153 -3.1536,-2.461 -0.78782,-0.64562 -2.2877,-1.9392 -3.3314,-2.876 -1.0447,-0.93573 -2.7992,-2.6214 -3.899,-3.7463 -1.1009,-1.1238 -2.6491,-2.7924 -3.4415,-3.7051 -0.79241,-0.91395 -1.8566,-2.1776 -2.3634,-2.8083 -0.50801,-0.63071 -1.4277,-1.8176 -2.0435,-2.6375 -0.6158,-0.81993 -1.8554,-2.6008 -2.7545,-3.9563 -0.9002,-1.3566 -2.0893,-3.2396 -2.6433,-4.1856 -0.55273,-0.94607 -1.5905,-2.8588 -2.3038,-4.252 -0.71442,-1.3921 -1.6651,-3.353 -2.1124,-4.3576 -0.44723,-1.0034 -1.1387,-2.6513 -1.5366,-3.6605 -0.39908,-1.0091 -1.0183,-2.6868 -1.3761,-3.7269 -0.35778,-1.0412 -0.97703,-3.0273 -1.3761,-4.415 -0.39792,-1.3876 -0.95983,-3.5801 -1.25,-4.8737 -0.28898,-1.2935 -0.65594,-3.0997 -0.81648,-4.0136 -0.16055,-0.91396 -0.41628,-2.5917 -0.5711,-3.7269 -0.15365,-1.1353 -0.3704,-2.9931 -0.48163,-4.1283 -0.1617,-1.6444 -0.20297,-3.1845 -0.20641,-7.5686 -0.002,-3.6651 0.047,-6.0606 0.14792,-7.1672 0.0826,-0.91512 0.25112,-2.4884 0.37499,-3.4976 0.1227,-1.0091 0.37958,-2.7638 0.56993,-3.899 0.18921,-1.1353 0.52635,-2.8898 0.74883,-3.899 0.22246,-1.0091 0.6376,-2.712 0.92313,-3.7843 0.28554,-1.0722 0.79471,-2.8266 1.133,-3.899 0.33713,-1.0722 0.97245,-2.9048 1.4105,-4.071 0.43921,-1.1674 1.1169,-2.8704 1.5068,-3.7843 0.39105,-0.91512 1.1949,-2.6594 1.7866,-3.8771 0.59173,-1.2167 1.4197,-2.8428 1.8417,-3.6123 0.42085,-0.76833 1.2075,-2.1466 1.75,-3.0608 0.54126,-0.91512 1.657,-2.6697 2.4793,-3.899 0.82222,-1.2305 2.0963,-3.0366 2.8314,-4.0136 0.73508,-0.97818 2.0022,-2.5779 2.8153,-3.5549 0.8142,-0.97819 2.0412,-2.3966 2.7281,-3.1536 0.6869,-0.75685 2.1386,-2.2613 3.227,-3.3427 1.0871,-1.0814 2.8347,-2.719 3.8829,-3.6387 1.0481,-0.91856 2.509,-2.1537 3.2454,-2.7419 0.73736,-0.58942 1.9862,-1.5573 2.7741,-2.1524 0.78897,-0.59515 2.5171,-1.8061 3.8416,-2.6914 1.3245,-0.88415 3.1571,-2.0515 4.071,-2.5928 0.91396,-0.54126 2.2304,-1.2947 2.9242,-1.6743 0.69378,-0.38071 2.0481,-1.0848 3.0102,-1.5653 0.96212,-0.48048 2.5367,-1.2305 3.4976,-1.6651 0.96212,-0.43461 2.7293,-1.1777 3.9276,-1.6502 1.1984,-0.47361 2.8749,-1.1009 3.7247,-1.3945 0.85088,-0.29357 2.3991,-0.79126 3.4402,-1.1078 1.0424,-0.31651 3.0044,-0.85204 4.3599,-1.1903 1.3566,-0.33829 3.266,-0.77176 4.243,-0.96327 0.97818,-0.1915 2.2419,-0.42545 2.8095,-0.52061 0.56764,-0.0952 1.5997,-0.25344 2.2935,-0.34976 0.69378,-0.0975 1.907,-0.25113 2.6949,-0.34287 0.78897,-0.0906 2.3257,-0.2282 3.4161,-0.30618 l 1.9827,-0.14105 0.69952,0.79583 c 0.38417,0.43806 1.5057,1.5951 2.4896,2.5734 0.98505,0.97703 2.3807,2.2671 3.1008,2.8669 l 1.3084,1.0894 -2.9725,0.0677 c -1.8348,0.0413 -3.1684,0.1227 -3.485,0.21215 -0.28325,0.0791 -0.82337,0.30044 -1.2006,0.49081 -0.38989,0.19724 -0.98736,0.65136 -1.3807,1.0493 -0.38071,0.38645 -0.83254,0.96442 -1.0034,1.2844 -0.17086,0.32109 -0.38874,0.88644 -0.48622,1.2568 -0.0963,0.37154 -0.17545,1.0149 -0.17545,1.43 0,0.41512 0.0768,1.0504 0.17086,1.4117 0.094,0.36122 0.30617,0.92197 0.47016,1.2465 0.16513,0.32567 0.55847,0.86464 0.87498,1.1995 0.31651,0.33484 0.82681,0.76947 1.1353,0.96785 0.30847,0.19723 0.883,0.47016 1.2763,0.60548 l 0.71672,0.2454 38.416,0.031 c 25.981,0.0218 38.676,-0.007 39.218,-0.086 0.51719,-0.0768 1.1353,-0.28211 1.735,-0.57566 0.68461,-0.33485 1.0974,-0.63416 1.5481,-1.1227 0.33942,-0.36696 0.7557,-0.92543 0.92771,-1.2431 0.17077,-0.31651 0.38989,-0.87955 0.48737,-1.25 0.0963,-0.37154 0.17552,-1.0149 0.17552,-1.43 0,-0.41512 -0.0792,-1.0585 -0.17552,-1.43 -0.0976,-0.37041 -0.31536,-0.93576 -0.48622,-1.2568 -0.17077,-0.31994 -0.62268,-0.89791 -1.0034,-1.2844 -0.39334,-0.39792 -0.99081,-0.85204 -1.3807,-1.0493 -0.37727,-0.19037 -0.91741,-0.41167 -1.2006,-0.49081 -0.3165,-0.0894 -1.6502,-0.17086 -3.485,-0.21215 l -2.9725,-0.0676 1.274,-1.063 c 0.70181,-0.58484 1.9655,-1.7293 2.8095,-2.5447 0.84402,-0.81535 2.0148,-2.0263 2.6008,-2.6926 l 1.0653,-1.211 h 10.522 l 0.002,6.8518 c 0.001,5.4425 0.0344,7.0078 0.16273,7.6121 0.0883,0.41856 0.29013,1.0149 0.44723,1.3256 0.1582,0.31077 0.49311,0.82566 0.74426,1.1445 0.25228,0.31764 0.77061,0.78781 1.1536,1.0435 0.38303,0.25573 1.0436,0.58026 1.4678,0.7213 0.53898,0.18003 1.047,0.25686 1.6926,0.25802 0.55388,10e-4 1.2133,-0.0814 1.6502,-0.20642 0.39907,-0.11467 1.0183,-0.39792 1.3761,-0.62956 0.35665,-0.2305 0.8486,-0.62955 1.0917,-0.88644 0.24311,-0.25802 0.59171,-0.69263 0.77519,-0.96671 0.18357,-0.27522 0.43692,-0.82795 0.56191,-1.2293 l 0.22706,-0.72819 0.002,-9.7645 c 10e-4,-5.47 0.0505,-10.227 0.11241,-10.816 0.0666,-0.62613 0.24654,-1.422 0.44379,-1.9644 0.18356,-0.50228 0.54699,-1.2775 0.80732,-1.7247 0.26145,-0.44723 0.74997,-1.1777 1.0848,-1.6238 0.336,-0.44608 0.98162,-1.2201 1.4357,-1.7213 0.45412,-0.5 1.4702,-1.4747 2.2591,-2.1673 0.78783,-0.69149 2.1147,-1.7683 2.9471,-2.3921 0.8337,-0.62382 2.0596,-1.4977 2.7248,-1.9426 0.66512,-0.44495 1.9621,-1.2752 2.8817,-1.844 0.91969,-0.56993 2.6204,-1.5642 3.7785,-2.211 1.1582,-0.64676 3.4747,-1.8577 5.1455,-2.6926 1.672,-0.83484 3.9161,-1.9174 4.9884,-2.4059 1.0722,-0.48852 2.9048,-1.2993 4.071,-1.8016 1.1674,-0.50228 3.1536,-1.3245 4.415,-1.8245 1.2614,-0.50113 3.532,-1.3669 5.0457,-1.9231 1.5137,-0.55733 2.8302,-1.0401 2.9242,-1.0745 0.0953,-0.0344 0.23624,-0.0665 0.31537,-0.0711 z m -112.59,225.22 h 22.685 v 17.33 l -0.83139,-0.0848 c -0.45755,-0.0458 -7.307,-0.0872 -15.223,-0.0905 -8.0675,-0.004 -17.239,0.0551 -20.87,0.13427 -3.563,0.078 -6.9562,0.17201 -7.5399,0.20983 l -1.0608,0.0689 v -8.7072 c 0,-4.7889 0.0344,-8.7417 0.0768,-8.783 0.0413,-0.0425 10.285,-0.0769 22.764,-0.0769 z m 4.6295,-256.41 c -0.50685,0.005 -1.2316,0.0975 -1.61,0.20642 -0.37843,0.10778 -0.97131,0.3486 -1.3188,0.53324 -0.34631,0.18577 -0.98276,0.69034 -1.4139,1.1215 l -0.78324,0.78553 -1.7545,3.5745 c -0.96555,1.9667 -2.5113,5.0973 -3.4367,6.9585 -0.93232,1.8761 -1.7694,3.4184 -1.8772,3.4631 -0.10663,0.0447 -3.2911,0.52406 -7.0754,1.0653 -3.7843,0.54126 -7.2544,1.063 -7.7119,1.1605 -0.45754,0.0963 -1.1834,0.35091 -1.6135,0.56649 -0.47934,0.23966 -1.0516,0.66053 -1.4805,1.0894 -0.39792,0.39792 -0.87611,1.0366 -1.1089,1.4782 -0.22478,0.42774 -0.49311,1.1341 -0.59516,1.5676 -0.13072,0.55389 -0.16743,1.0642 -0.1227,1.7075 0.0356,0.50457 0.17202,1.227 0.30274,1.6054 0.13187,0.37842 0.4048,0.96327 0.60777,1.3004 0.25229,0.41741 2.1273,2.3244 5.9023,6.0033 3.6422,3.5492 5.5331,5.4689 5.5331,5.6191 0,0.12498 -0.57338,3.5388 -1.2729,7.5857 -1.1318,6.541 -1.2672,7.4596 -1.211,8.2818 0.0378,0.5814 0.17086,1.2156 0.35549,1.7064 0.1617,0.43003 0.52177,1.1009 0.80044,1.4908 0.27866,0.39105 0.78208,0.91969 1.1181,1.1766 0.336,0.25687 0.81764,0.5688 1.0699,0.69379 0.25229,0.12499 0.7431,0.32109 1.0894,0.43692 0.42201,0.1399 0.97245,0.20986 1.6628,0.21099 0.66741,10e-4 1.2844,-0.0734 1.7465,-0.2087 0.40249,-0.11812 3.6432,-1.75 7.4493,-3.7511 3.7051,-1.9472 6.7704,-3.5401 6.8128,-3.5401 0.0412,0 3.0366,1.5584 6.6547,3.4632 3.618,1.9048 6.8885,3.5768 7.267,3.7144 0.37958,0.13877 1.024,0.28669 1.4334,0.33027 0.41856,0.0436 1.0986,0.0218 1.5481,-0.0505 0.4415,-0.07 1.1376,-0.28324 1.547,-0.47361 0.40825,-0.19037 1.0114,-0.54815 1.3406,-0.79699 0.32796,-0.24771 0.8314,-0.77979 1.1192,-1.1823 0.28669,-0.40251 0.6548,-1.0837 0.8165,-1.5137 0.18459,-0.49194 0.31649,-1.1238 0.35549,-1.7064 0.0538,-0.81877 -0.0837,-1.7683 -1.211,-8.331 -0.70068,-4.0745 -1.2729,-7.4848 -1.2729,-7.5801 0,-0.0952 2.4896,-2.5998 5.5331,-5.5652 3.8726,-3.774 5.6455,-5.5801 5.907,-6.0169 0.20642,-0.34287 0.48851,-0.93115 0.62727,-1.305 0.20871,-0.55962 0.25229,-0.91282 0.24884,-1.9988 -0.004,-1.0997 -0.0493,-1.4323 -0.27177,-2.0068 -0.14685,-0.37843 -0.44266,-0.96443 -0.65825,-1.3038 -0.21556,-0.3383 -0.64791,-0.86007 -0.96096,-1.1605 -0.31307,-0.30045 -0.86465,-0.70181 -1.2247,-0.89218 -0.36123,-0.19037 -0.94034,-0.43118 -1.2878,-0.53553 -0.34631,-0.1032 -3.9472,-0.66855 -7.9998,-1.2545 -4.0526,-0.58713 -7.393,-1.0906 -7.4217,-1.1192 -0.0287,-0.0287 -1.6043,-3.1925 -3.5021,-7.0319 l -3.4506,-6.978 -0.76945,-0.76948 c -0.461,-0.46099 -1.055,-0.91395 -1.4839,-1.1307 -0.39218,-0.19839 -1.0091,-0.43692 -1.3692,-0.53095 -0.36123,-0.094 -1.0711,-0.16744 -1.5779,-0.16284 z m 0.0528,20.291 c 0.0322,0 0.69723,1.2763 1.4805,2.837 1.2752,2.5435 1.4954,2.9104 2.1215,3.5353 0.49194,0.49195 0.98734,0.83942 1.6731,1.1766 l 0.97474,0.47819 2.8095,0.4048 c 1.5458,0.22246 2.9333,0.43119 3.0836,0.46444 0.24655,0.0539 0.0355,0.3016 -2.0745,2.4333 -1.8199,1.8382 -2.4197,2.5183 -2.6604,3.0183 -0.17201,0.35549 -0.38531,0.92313 -0.4759,1.2614 -0.0895,0.33829 -0.16397,1.0252 -0.16521,1.5263 -10e-4,0.5516 0.18233,1.9678 0.46328,3.5952 0.25573,1.477 0.44952,2.72 0.43003,2.7638 -0.0186,0.0436 -1.1433,-0.50342 -2.5,-1.2156 -1.3555,-0.71214 -2.7487,-1.4036 -3.0962,-1.5378 -0.41627,-0.1617 -0.99996,-0.26375 -1.7201,-0.3016 -0.79584,-0.0413 -1.2912,-0.006 -1.8348,0.13303 -0.46328,0.11812 -1.766,0.72475 -3.4402,1.6032 -1.4816,0.77635 -2.7087,1.3773 -2.7258,1.3348 -0.0165,-0.0424 0.18129,-1.2866 0.4415,-2.7638 0.31649,-1.7924 0.47245,-3.0114 0.46901,-3.6616 -0.002,-0.65021 -0.0825,-1.2259 -0.23966,-1.7282 -0.12953,-0.41512 -0.43463,-1.0596 -0.67888,-1.4334 -0.24312,-0.37385 -1.4071,-1.6341 -2.586,-2.8005 -1.735,-1.7178 -2.1044,-2.1363 -1.938,-2.1994 0.11344,-0.0436 1.3669,-0.24197 2.7854,-0.44034 1.4197,-0.1984 2.8186,-0.43004 3.1111,-0.51375 0.29242,-0.0837 0.83368,-0.29931 1.2029,-0.47819 0.38876,-0.18922 0.9908,-0.63874 1.43,-1.0711 l 0.75917,-0.74539 1.4208,-2.8382 c 0.78208,-1.5607 1.4484,-2.837 1.4793,-2.837 z m 79.01,92.095 c -0.34632,0.004 -0.93345,0.0815 -1.3039,0.17078 -0.36924,0.0895 -0.98848,0.32682 -1.3761,0.5275 -0.59173,0.30849 -1.6914,1.3543 -6.9607,6.6225 -5.3817,5.3806 -6.3106,6.3587 -6.6363,6.9871 -0.20872,0.40137 -0.44954,0.99539 -0.53555,1.3188 -0.086,0.32338 -0.15716,0.97933 -0.15819,1.4564 0,0.47705 0.0825,1.1479 0.18356,1.4908 0.1021,0.34289 0.31536,0.87956 0.47359,1.1926 0.15943,0.31423 0.60665,0.8876 0.99425,1.2752 0.38759,0.3876 0.96096,0.83483 1.2752,0.99424 0.31307,0.1582 0.84973,0.37154 1.1926,0.4736 0.35205,0.10436 1.0332,0.18459 1.5664,0.18459 0.60205,0 1.1949,-0.078 1.6387,-0.21559 0.38072,-0.11922 0.94034,-0.35894 1.2419,-0.53209 0.32912,-0.18913 2.1363,-1.8956 4.5078,-4.2545 l 3.9586,-3.9392 3.782,3.7878 c 2.0802,2.0848 4.0835,3.993 4.4529,4.2407 0.36925,0.24886 1.0069,0.55617 1.4174,0.68231 0.49194,0.15242 1.0676,0.23051 1.696,0.23051 0.62382,0 1.2041,-0.078 1.688,-0.2282 0.40481,-0.12499 1.0435,-0.42545 1.4174,-0.66742 0.37499,-0.24195 0.88873,-0.67543 1.1422,-0.96441 0.2546,-0.28784 0.60091,-0.77865 0.76948,-1.0894 0.16975,-0.31078 0.38645,-0.86924 0.48393,-1.2396 0.0963,-0.37154 0.17551,-1.0149 0.17551,-1.43 0,-0.41512 -0.0792,-1.0584 -0.17551,-1.4289 -0.0963,-0.37038 -0.33027,-0.9644 -0.51949,-1.3188 -0.27062,-0.50686 -1.6995,-1.9976 -6.7336,-7.0216 -5.0389,-5.0296 -6.5171,-6.4414 -6.9894,-6.6763 -0.33026,-0.16396 -0.92313,-0.37498 -1.3188,-0.46785 -0.39563,-0.094 -1.0022,-0.16624 -1.3497,-0.1617 z"
         id="icon" /></g></g></svg>